<?xml version="1.0" encoding="UTF-8" standalone="no"?>
<!-- Created with Digital by H.Neemann -->
<!-- created: Thu Apr 09 03:59:02 BRT 2026 -->

<svg
   xmlns:svg="http://www.w3.org/2000/svg"
   xmlns="http://www.w3.org/2000/svg"
   width="225.75mm"
   height="167.1mm"
   viewBox="-6445 -4176 1505 1114">
<g stroke-linecap="square">
<path d="M -6380,-3460 L -6340,-3460" stroke="#0000b2" stroke-width="4.0" fill="none"/>
<path d="M -6220,-3460 L -6180,-3460" stroke="#0000b2" stroke-width="4.0" fill="none"/>
<path d="M -6120,-3460 L -6080,-3460" stroke="#0000b2" stroke-width="4.0" fill="none"/>
<path d="M -6120,-3140 L -6080,-3140" stroke="#0000b2" stroke-width="4.0" fill="none"/>
<path d="M -5480,-3780 L -5460,-3780" stroke="#0000b2" stroke-width="4.0" fill="none"/>
<path d="M -5820,-4100 L -5720,-4100" stroke="#0000b2" stroke-width="4.0" fill="none"/>
<path d="M -6120,-3080 L -6080,-3080" stroke="#0000b2" stroke-width="4.0" fill="none"/>
<path d="M -6340,-3720 L -6300,-3720" stroke="#0000b2" stroke-width="4.0" fill="none"/>
<path d="M -5640,-3920 L -5460,-3920" stroke="#0000b2" stroke-width="4.0" fill="none"/>
<path d="M -5780,-3920 L -5760,-3920 L -5760,-3900 L -5740,-3900" stroke="#0000b2" stroke-width="4.0" fill="none"/>
<path d="M -6120,-3220 L -6080,-3220" stroke="#0000b2" stroke-width="4.0" fill="none"/>
<path d="M -6260,-3860 L -6200,-3860" stroke="#0000b2" stroke-width="4.0" fill="none"/>
<path d="M -6300,-3940 L -6300,-3860 L -6280,-3860" stroke="#0000b2" stroke-width="4.0" fill="none"/>
<path d="M -6300,-3160 L -6160,-3160" stroke="#0000b2" stroke-width="4.0" fill="none"/>
<path d="M -6120,-3160 L -6080,-3160" stroke="#0000b2" stroke-width="4.0" fill="none"/>
<path d="M -6300,-3480 L -6180,-3480" stroke="#0000b2" stroke-width="4.0" fill="none"/>
<path d="M -5640,-4060 L -5460,-4060" stroke="#0000b2" stroke-width="4.0" fill="none"/>
<path d="M -5780,-4060 L -5760,-4060 L -5760,-4040 L -5740,-4040" stroke="#0000b2" stroke-width="4.0" fill="none"/>
<path d="M -6120,-3100 L -6080,-3100" stroke="#0000b2" stroke-width="4.0" fill="none"/>
<path d="M -5820,-3940 L -5800,-3940" stroke="#0000b2" stroke-width="4.0" fill="none"/>
<path d="M -5780,-3940 L -5720,-3940" stroke="#0000b2" stroke-width="4.0" fill="none"/>
<path d="M -6340,-3940 L -6300,-3940 L -6260,-3940" stroke="#0000b2" stroke-width="4.0" fill="none"/>
<path d="M -5780,-3900 L -5780,-3880 L -5740,-3880" stroke="#0000b2" stroke-width="4.0" fill="none"/>
<path d="M -6380,-3500 L -6340,-3500" stroke="#0000b2" stroke-width="4.0" fill="none"/>
<path d="M -6300,-3180 L -6260,-3180" stroke="#0000b2" stroke-width="4.0" fill="none"/>
<path d="M -6400,-3180 L -6360,-3180" stroke="#0000b2" stroke-width="4.0" fill="none"/>
<path d="M -6120,-3180 L -6080,-3180" stroke="#0000b2" stroke-width="4.0" fill="none"/>
<path d="M -6260,-3820 L -6220,-3820" stroke="#0000b2" stroke-width="4.0" fill="none"/>
<path d="M -5820,-4080 L -5800,-4080" stroke="#0000b2" stroke-width="4.0" fill="none"/>
<path d="M -5780,-4080 L -5740,-4080" stroke="#0000b2" stroke-width="4.0" fill="none"/>
<path d="M -6340,-4080 L -6300,-4080" stroke="#0000b2" stroke-width="4.0" fill="none"/>
<path d="M -6200,-3440 L -6180,-3440" stroke="#0000b2" stroke-width="4.0" fill="none"/>
<path d="M -6120,-3120 L -6080,-3120" stroke="#0000b2" stroke-width="4.0" fill="none"/>
<path d="M -5480,-3700 L -5460,-3700" stroke="#0000b2" stroke-width="4.0" fill="none"/>
<path d="M -5780,-4040 L -5780,-4020 L -5740,-4020" stroke="#0000b2" stroke-width="4.0" fill="none"/>
<path d="M -5820,-3960 L -5720,-3960" stroke="#0000b2" stroke-width="4.0" fill="none"/>
<path d="M -6260,-3840 L -6200,-3840" stroke="#0000b2" stroke-width="4.0" fill="none"/>
<path d="M -6120,-3840 L -6080,-3840" stroke="#0000b2" stroke-width="4.0" fill="none"/>
<path d="M -6300,-3200 L -6280,-3200" stroke="#0000b2" stroke-width="4.0" fill="none"/>
<path d="M -6120,-3200 L -6080,-3200" stroke="#0000b2" stroke-width="4.0" fill="none"/>
<path d="M -6140,-3280 L -6140,-3240" stroke="#0000b2" stroke-width="4.0" fill="none"/>
<path d="M -6320,-3460 L -6320,-3420" stroke="#0000b2" stroke-width="4.0" fill="none"/>
<path d="M -6280,-3860 L -6270,-3860 L -6260,-3860" stroke="#000000" stroke-width="4.0" fill="none"/>
<path d="M -6260,-3840 L -6270,-3840" stroke="#000000" stroke-width="4.0" fill="none"/>
<path d="M -6260,-3820 L -6270,-3820" stroke="#000000" stroke-width="4.0" fill="none"/>
<path d="M -5719,-3960 L -5719,-3951" stroke="#000000" stroke-width="4.0" fill="none"/>
<path d="M -5719,-3880 L -5719,-3889" stroke="#000000" stroke-width="4.0" fill="none"/>
<path d="M -5800,-3940 L -5790,-3940 L -5780,-3940" stroke="#000000" stroke-width="4.0" fill="none"/>
<path d="M -5780,-3920 L -5790,-3920" stroke="#000000" stroke-width="4.0" fill="none"/>
<path d="M -5780,-3900 L -5790,-3900" stroke="#000000" stroke-width="4.0" fill="none"/>
<path d="M -5719,-4100 L -5719,-4091" stroke="#000000" stroke-width="4.0" fill="none"/>
<path d="M -5719,-4020 L -5719,-4029" stroke="#000000" stroke-width="4.0" fill="none"/>
<path d="M -5800,-4080 L -5790,-4080 L -5780,-4080" stroke="#000000" stroke-width="4.0" fill="none"/>
<path d="M -5780,-4060 L -5790,-4060" stroke="#000000" stroke-width="4.0" fill="none"/>
<path d="M -5780,-4040 L -5790,-4040" stroke="#000000" stroke-width="4.0" fill="none"/>
<g>
<circle cx="-6300.0" cy="-3940.0" r="4.0" stroke="#0000b2" stroke-width="4.0" fill="#0000b2" />
</g>
<g>
<path d="M -6371,-4095 L -6341,-4095 L -6341,-4065 L -6371,-4065 Z" stroke="#000000" stroke-width="4.0" fill="none"/>
<circle cx="-6356.0" cy="-4080.0" r="9.0" stroke="#000000" stroke-width="4.0" fill="none" />
<text text-anchor="end" x="-6385.0" y="-4071.0" fill="#000000" style="font-size:24px"><tspan style="font-style:italic;">N</tspan></text>
<circle cx="-6340.0" cy="-4080.0" r="2.0" stroke="#b20000" stroke-width="4.0" fill="#b20000" />
</g>
<g>
<path d="M -6371,-3955 L -6341,-3955 L -6341,-3925 L -6371,-3925 Z" stroke="#000000" stroke-width="4.0" fill="none"/>
<circle cx="-6356.0" cy="-3940.0" r="9.0" stroke="#000000" stroke-width="4.0" fill="none" />
<text text-anchor="end" x="-6385.0" y="-3931.0" fill="#000000" style="font-size:24px"><tspan style="font-style:italic;">S</tspan></text>
<circle cx="-6340.0" cy="-3940.0" r="2.0" stroke="#b20000" stroke-width="4.0" fill="#b20000" />
</g>
<g>
<path d="M -6150,-3810 L -6199,-3810 L -6199,-3870 L -6150,-3870 C -6140,-3870 -6120,-3860 -6121,-3840 C -6121,-3820 -6140,-3810 -6150,-3810 Z" stroke="#000000" stroke-width="4.0" fill="none"/>
<circle cx="-6210.0" cy="-3820.0" r="8.0" stroke="#000000" stroke-width="4.0" fill="none" />
<circle cx="-6200.0" cy="-3860.0" r="2.0" stroke="#0000b2" stroke-width="4.0" fill="#0000b2" />
<circle cx="-6200.0" cy="-3840.0" r="2.0" stroke="#0000b2" stroke-width="4.0" fill="#0000b2" />
<circle cx="-6220.0" cy="-3820.0" r="2.0" stroke="#0000b2" stroke-width="4.0" fill="#0000b2" />
<circle cx="-6120.0" cy="-3840.0" r="2.0" stroke="#b20000" stroke-width="4.0" fill="#b20000" />
</g>
<g>
<path d="M -6300,-4080 L -6286,-4072 L -6286,-4088 Z" stroke="#000000" stroke-width="4.0" fill="none"/>
<text text-anchor="start" x="-6281.0" y="-4073.25" fill="#808080" style="font-size:18px">N</text>
<circle cx="-6300.0" cy="-4080.0" r="2.0" stroke="#0000b2" stroke-width="4.0" fill="#0000b2" />
</g>
<g>
<path d="M -6260,-3940 L -6246,-3932 L -6246,-3948 Z" stroke="#000000" stroke-width="4.0" fill="none"/>
<text text-anchor="start" x="-6241.0" y="-3933.25" fill="#808080" style="font-size:18px">sAC</text>
<circle cx="-6260.0" cy="-3940.0" r="2.0" stroke="#0000b2" stroke-width="4.0" fill="#0000b2" />
</g>
<g>
<text text-anchor="end" x="-6282.0" y="-3863.0" fill="#808080" style="font-size:12px">0-2</text>
<text text-anchor="start" x="-6258.0" y="-3863.0" fill="#808080" style="font-size:12px">0</text>
<text text-anchor="start" x="-6258.0" y="-3843.0" fill="#808080" style="font-size:12px">1</text>
<text text-anchor="start" x="-6258.0" y="-3823.0" fill="#808080" style="font-size:12px">2</text>
<path d="M -6272,-3862 L -6268,-3862 L -6268,-3818 L -6272,-3818 Z" stroke="#000000" stroke-width="4.0" fill="#000000" fill-opacity="1.0"/>
<circle cx="-6280.0" cy="-3860.0" r="2.0" stroke="#0000b2" stroke-width="4.0" fill="#0000b2" />
<circle cx="-6260.0" cy="-3860.0" r="2.0" stroke="#b20000" stroke-width="4.0" fill="#b20000" />
<circle cx="-6260.0" cy="-3840.0" r="2.0" stroke="#b20000" stroke-width="4.0" fill="#b20000" />
<circle cx="-6260.0" cy="-3820.0" r="2.0" stroke="#b20000" stroke-width="4.0" fill="#b20000" />
</g>
<g>
<path d="M -6080,-3840 L -6066,-3832 L -6066,-3848 Z" stroke="#000000" stroke-width="4.0" fill="none"/>
<text text-anchor="start" x="-6061.0" y="-3833.25" fill="#808080" style="font-size:18px">sMQ</text>
<circle cx="-6080.0" cy="-3840.0" r="2.0" stroke="#0000b2" stroke-width="4.0" fill="#0000b2" />
</g>
<g>
<path d="M -6371,-3735 L -6341,-3735 L -6341,-3705 L -6371,-3705 Z" stroke="#000000" stroke-width="4.0" fill="none"/>
<text text-anchor="end" x="-6385.0" y="-3711.0" fill="#000000" style="font-size:24px"><tspan style="font-style:italic;">CLK</tspan></text>
<path d="M -6365,-3715 L -6360,-3715 L -6360,-3725 L -6355,-3725 L -6355,-3715 L -6350,-3715 L -6350,-3725 L -6345,-3725" stroke="#000000" stroke-width="2.0" fill="none"/>
<circle cx="-6340.0" cy="-3720.0" r="2.0" stroke="#b20000" stroke-width="4.0" fill="#b20000" />
</g>
<g>
<path d="M -6300,-3720 L -6286,-3712 L -6286,-3728 Z" stroke="#000000" stroke-width="4.0" fill="none"/>
<text text-anchor="start" x="-6281.0" y="-3713.25" fill="#808080" style="font-size:18px">clk</text>
<circle cx="-6300.0" cy="-3720.0" r="2.0" stroke="#0000b2" stroke-width="4.0" fill="#0000b2" />
</g>
<g>
<path d="M -6179,-3490 L -6121,-3490 L -6121,-3430 L -6179,-3430 Z" stroke="#000000" stroke-width="4.0" fill="none"/>
<text text-anchor="middle" x="-6150.0" y="-3498.0" fill="#000000" style="font-size:24px">MQ</text>
<text text-anchor="start" x="-6176.0" y="-3473.25" fill="#808080" style="font-size:18px">D</text>
<path d="M -6179,-3453 L -6172,-3460 L -6179,-3467" stroke="#000000" stroke-width="2.0" fill="none"/>
<text text-anchor="start" x="-6169.0" y="-3453.25" fill="#808080" style="font-size:18px">C</text>
<text text-anchor="start" x="-6176.0" y="-3433.25" fill="#808080" style="font-size:18px">en</text>
<text text-anchor="end" x="-6124.0" y="-3453.25" fill="#808080" style="font-size:18px">Q</text>
<text text-anchor="middle" x="-6150.0" y="-3412.5" fill="#808080" style="font-size:18px">Reg</text>
<circle cx="-6180.0" cy="-3480.0" r="2.0" stroke="#0000b2" stroke-width="4.0" fill="#0000b2" />
<circle cx="-6180.0" cy="-3460.0" r="2.0" stroke="#0000b2" stroke-width="4.0" fill="#0000b2" />
<circle cx="-6180.0" cy="-3440.0" r="2.0" stroke="#0000b2" stroke-width="4.0" fill="#0000b2" />
<circle cx="-6120.0" cy="-3460.0" r="2.0" stroke="#b20000" stroke-width="4.0" fill="#b20000" />
</g>
<g>
<path d="M -6339,-3504 L -6301,-3495 L -6301,-3465 L -6339,-3456 Z" stroke="#000000" stroke-width="4.0" fill="none"/>
<text text-anchor="start" x="-6337.0" y="-3484.5" fill="#808080" style="font-size:18px">0</text>
<circle cx="-6320.0" cy="-3460.0" r="2.0" stroke="#0000b2" stroke-width="4.0" fill="#0000b2" />
<circle cx="-6340.0" cy="-3500.0" r="2.0" stroke="#0000b2" stroke-width="4.0" fill="#0000b2" />
<circle cx="-6340.0" cy="-3460.0" r="2.0" stroke="#0000b2" stroke-width="4.0" fill="#0000b2" />
<circle cx="-6300.0" cy="-3480.0" r="2.0" stroke="#b20000" stroke-width="4.0" fill="#b20000" />
</g>
<g>
<path d="M -6320,-3420 L -6328,-3406 L -6312,-3406 Z" stroke="#000000" stroke-width="4.0" fill="none"/>
<text text-anchor="end" x="-6320.0" y="-3394.25" fill="#808080" style="font-size:18px" transform="rotate(-90,-6320.0,-3401.0)" >sMQ</text>
<circle cx="-6320.0" cy="-3420.0" r="2.0" stroke="#0000b2" stroke-width="4.0" fill="#0000b2" />
</g>
<g>
<path d="M -6380,-3460 L -6394,-3468 L -6394,-3452 Z" stroke="#000000" stroke-width="4.0" fill="none"/>
<text text-anchor="end" x="-6399.0" y="-3453.25" fill="#808080" style="font-size:18px">MQ1</text>
<circle cx="-6380.0" cy="-3460.0" r="2.0" stroke="#0000b2" stroke-width="4.0" fill="#0000b2" />
</g>
<g>
<path d="M -6380,-3500 L -6394,-3508 L -6394,-3492 Z" stroke="#000000" stroke-width="4.0" fill="none"/>
<text text-anchor="end" x="-6399.0" y="-3493.25" fill="#808080" style="font-size:18px">MQ0</text>
<circle cx="-6380.0" cy="-3500.0" r="2.0" stroke="#0000b2" stroke-width="4.0" fill="#0000b2" />
</g>
<g>
<path d="M -6080,-3460 L -6066,-3452 L -6066,-3468 Z" stroke="#000000" stroke-width="4.0" fill="none"/>
<text text-anchor="start" x="-6061.0" y="-3453.25" fill="#808080" style="font-size:18px">MQ</text>
<circle cx="-6080.0" cy="-3460.0" r="2.0" stroke="#0000b2" stroke-width="4.0" fill="#0000b2" />
</g>
<g>
<path d="M -6220,-3460 L -6234,-3468 L -6234,-3452 Z" stroke="#000000" stroke-width="4.0" fill="none"/>
<text text-anchor="end" x="-6239.0" y="-3453.25" fill="#808080" style="font-size:18px">clk</text>
<circle cx="-6220.0" cy="-3460.0" r="2.0" stroke="#0000b2" stroke-width="4.0" fill="#0000b2" />
</g>
<g>
<text text-anchor="end" x="-6203.0" y="-3431.0" fill="#000000" style="font-size:24px">1</text>
<circle cx="-6200.0" cy="-3440.0" r="2.0" stroke="#b20000" stroke-width="4.0" fill="#b20000" />
</g>
<g>
<path d="M -6121,-3076 L -6159,-3085 L -6159,-3235 L -6121,-3244 Z" stroke="#000000" stroke-width="4.0" fill="none"/>
<text text-anchor="end" x="-6123.0" y="-3082.0" fill="#808080" style="font-size:18px">0</text>
<circle cx="-6140.0" cy="-3240.0" r="2.0" stroke="#0000b2" stroke-width="4.0" fill="#0000b2" />
<circle cx="-6120.0" cy="-3080.0" r="2.0" stroke="#0000b2" stroke-width="4.0" fill="#0000b2" />
<circle cx="-6120.0" cy="-3100.0" r="2.0" stroke="#0000b2" stroke-width="4.0" fill="#0000b2" />
<circle cx="-6120.0" cy="-3120.0" r="2.0" stroke="#0000b2" stroke-width="4.0" fill="#0000b2" />
<circle cx="-6120.0" cy="-3140.0" r="2.0" stroke="#0000b2" stroke-width="4.0" fill="#0000b2" />
<circle cx="-6120.0" cy="-3160.0" r="2.0" stroke="#0000b2" stroke-width="4.0" fill="#0000b2" />
<circle cx="-6120.0" cy="-3180.0" r="2.0" stroke="#0000b2" stroke-width="4.0" fill="#0000b2" />
<circle cx="-6120.0" cy="-3200.0" r="2.0" stroke="#0000b2" stroke-width="4.0" fill="#0000b2" />
<circle cx="-6120.0" cy="-3220.0" r="2.0" stroke="#0000b2" stroke-width="4.0" fill="#0000b2" />
<circle cx="-6160.0" cy="-3160.0" r="2.0" stroke="#b20000" stroke-width="4.0" fill="#b20000" />
</g>
<g>
<path d="M -6301,-3150 L -6359,-3150 L -6359,-3210 L -6301,-3210 Z" stroke="#000000" stroke-width="4.0" fill="none"/>
<text text-anchor="middle" x="-6330.0" y="-3124.0" fill="#000000" style="font-size:24px">AC</text>
<text text-anchor="end" x="-6304.0" y="-3153.25" fill="#808080" style="font-size:18px">D</text>
<path d="M -6301,-3187 L -6308,-3180 L -6301,-3173" stroke="#000000" stroke-width="2.0" fill="none"/>
<text text-anchor="end" x="-6311.0" y="-3173.25" fill="#808080" style="font-size:18px">C</text>
<text text-anchor="end" x="-6304.0" y="-3193.25" fill="#808080" style="font-size:18px">en</text>
<text text-anchor="start" x="-6356.0" y="-3173.25" fill="#808080" style="font-size:18px">Q</text>
<text text-anchor="middle" x="-6330.0" y="-3214.0" fill="#808080" style="font-size:18px">Reg</text>
<circle cx="-6300.0" cy="-3160.0" r="2.0" stroke="#0000b2" stroke-width="4.0" fill="#0000b2" />
<circle cx="-6300.0" cy="-3180.0" r="2.0" stroke="#0000b2" stroke-width="4.0" fill="#0000b2" />
<circle cx="-6300.0" cy="-3200.0" r="2.0" stroke="#0000b2" stroke-width="4.0" fill="#0000b2" />
<circle cx="-6360.0" cy="-3180.0" r="2.0" stroke="#b20000" stroke-width="4.0" fill="#b20000" />
</g>
<g>
<path d="M -6260,-3180 L -6246,-3172 L -6246,-3188 Z" stroke="#000000" stroke-width="4.0" fill="none"/>
<text text-anchor="start" x="-6241.0" y="-3173.25" fill="#808080" style="font-size:18px">clk</text>
<circle cx="-6260.0" cy="-3180.0" r="2.0" stroke="#0000b2" stroke-width="4.0" fill="#0000b2" />
</g>
<g>
<path d="M -6400,-3180 L -6414,-3188 L -6414,-3172 Z" stroke="#000000" stroke-width="4.0" fill="none"/>
<text text-anchor="end" x="-6419.0" y="-3173.25" fill="#808080" style="font-size:18px">AC</text>
<circle cx="-6400.0" cy="-3180.0" r="2.0" stroke="#0000b2" stroke-width="4.0" fill="#0000b2" />
</g>
<g>
<path d="M -6140,-3280 L -6132,-3294 L -6148,-3294 Z" stroke="#000000" stroke-width="4.0" fill="none"/>
<text text-anchor="start" x="-6140.0" y="-3292.25" fill="#808080" style="font-size:18px" transform="rotate(-90,-6140.0,-3299.0)" >sAC</text>
<circle cx="-6140.0" cy="-3280.0" r="2.0" stroke="#0000b2" stroke-width="4.0" fill="#0000b2" />
</g>
<g>
<path d="M -6080,-3220 L -6066,-3212 L -6066,-3228 Z" stroke="#000000" stroke-width="4.0" fill="none"/>
<text text-anchor="start" x="-6061.0" y="-3213.25" fill="#808080" style="font-size:18px">111</text>
<circle cx="-6080.0" cy="-3220.0" r="2.0" stroke="#0000b2" stroke-width="4.0" fill="#0000b2" />
</g>
<g>
<path d="M -6080,-3200 L -6066,-3192 L -6066,-3208 Z" stroke="#000000" stroke-width="4.0" fill="none"/>
<text text-anchor="start" x="-6061.0" y="-3193.25" fill="#808080" style="font-size:18px">110</text>
<circle cx="-6080.0" cy="-3200.0" r="2.0" stroke="#0000b2" stroke-width="4.0" fill="#0000b2" />
</g>
<g>
<path d="M -6080,-3180 L -6066,-3172 L -6066,-3188 Z" stroke="#000000" stroke-width="4.0" fill="none"/>
<text text-anchor="start" x="-6061.0" y="-3173.25" fill="#808080" style="font-size:18px">101</text>
<circle cx="-6080.0" cy="-3180.0" r="2.0" stroke="#0000b2" stroke-width="4.0" fill="#0000b2" />
</g>
<g>
<path d="M -6080,-3160 L -6066,-3152 L -6066,-3168 Z" stroke="#000000" stroke-width="4.0" fill="none"/>
<text text-anchor="start" x="-6061.0" y="-3153.25" fill="#808080" style="font-size:18px">100</text>
<circle cx="-6080.0" cy="-3160.0" r="2.0" stroke="#0000b2" stroke-width="4.0" fill="#0000b2" />
</g>
<g>
<path d="M -6080,-3140 L -6066,-3132 L -6066,-3148 Z" stroke="#000000" stroke-width="4.0" fill="none"/>
<text text-anchor="start" x="-6061.0" y="-3133.25" fill="#808080" style="font-size:18px">011</text>
<circle cx="-6080.0" cy="-3140.0" r="2.0" stroke="#0000b2" stroke-width="4.0" fill="#0000b2" />
</g>
<g>
<path d="M -6080,-3120 L -6066,-3112 L -6066,-3128 Z" stroke="#000000" stroke-width="4.0" fill="none"/>
<text text-anchor="start" x="-6061.0" y="-3113.25" fill="#808080" style="font-size:18px">010</text>
<circle cx="-6080.0" cy="-3120.0" r="2.0" stroke="#0000b2" stroke-width="4.0" fill="#0000b2" />
</g>
<g>
<path d="M -6080,-3100 L -6066,-3092 L -6066,-3108 Z" stroke="#000000" stroke-width="4.0" fill="none"/>
<text text-anchor="start" x="-6061.0" y="-3093.25" fill="#808080" style="font-size:18px">001</text>
<circle cx="-6080.0" cy="-3100.0" r="2.0" stroke="#0000b2" stroke-width="4.0" fill="#0000b2" />
</g>
<g>
<path d="M -6080,-3080 L -6066,-3072 L -6066,-3088 Z" stroke="#000000" stroke-width="4.0" fill="none"/>
<text text-anchor="start" x="-6061.0" y="-3073.25" fill="#808080" style="font-size:18px">000</text>
<circle cx="-6080.0" cy="-3080.0" r="2.0" stroke="#0000b2" stroke-width="4.0" fill="#0000b2" />
</g>
<g>
<text text-anchor="start" x="-6277.0" y="-3191.0" fill="#000000" style="font-size:24px">1</text>
<circle cx="-6280.0" cy="-3200.0" r="2.0" stroke="#b20000" stroke-width="4.0" fill="#b20000" />
</g>
<g>
<path d="M -5059,-3614 L -5001,-3614 L -5001,-3566 L -5059,-3566 Z" stroke="#ffffb4" stroke-width="0.0" fill="#ffffb4" fill-opacity="0.7843137254901961"/>
<path d="M -5059,-3614 L -5001,-3614 L -5001,-3566 L -5059,-3566 Z" stroke="#000000" stroke-width="4.0" fill="none"/>
<text text-anchor="start" x="-5056.0" y="-3593.25" fill="#808080" style="font-size:18px">AC</text>
<text text-anchor="start" x="-5056.0" y="-3573.25" fill="#808080" style="font-size:18px">N</text>
<text text-anchor="end" x="-5004.0" y="-3593.25" fill="#808080" style="font-size:18px">S</text>
<text text-anchor="end" x="-5004.0" y="-3573.25" fill="#808080" style="font-size:18px">Overflow</text>
<text text-anchor="middle" x="-5030.0" y="-3548.5" fill="#808080" style="font-size:18px">somador</text>
<circle cx="-5060.0" cy="-3600.0" r="2.0" stroke="#0000b2" stroke-width="4.0" fill="#0000b2" />
<circle cx="-5060.0" cy="-3580.0" r="2.0" stroke="#0000b2" stroke-width="4.0" fill="#0000b2" />
<circle cx="-5000.0" cy="-3600.0" r="2.0" stroke="#b20000" stroke-width="4.0" fill="#b20000" />
<circle cx="-5000.0" cy="-3580.0" r="2.0" stroke="#b20000" stroke-width="4.0" fill="#b20000" />
</g>
<g>
<path d="M -5059,-3454 L -5001,-3454 L -5001,-3406 L -5059,-3406 Z" stroke="#ffffb4" stroke-width="0.0" fill="#ffffb4" fill-opacity="0.7843137254901961"/>
<path d="M -5059,-3454 L -5001,-3454 L -5001,-3406 L -5059,-3406 Z" stroke="#000000" stroke-width="4.0" fill="none"/>
<text text-anchor="start" x="-5056.0" y="-3433.25" fill="#808080" style="font-size:18px">AC</text>
<text text-anchor="start" x="-5056.0" y="-3413.25" fill="#808080" style="font-size:18px">N</text>
<text text-anchor="end" x="-5004.0" y="-3433.25" fill="#808080" style="font-size:18px">S</text>
<text text-anchor="end" x="-5004.0" y="-3413.25" fill="#808080" style="font-size:18px">Overflow</text>
<text text-anchor="middle" x="-5030.0" y="-3388.5" fill="#808080" style="font-size:18px">subtrator</text>
<circle cx="-5060.0" cy="-3440.0" r="2.0" stroke="#0000b2" stroke-width="4.0" fill="#0000b2" />
<circle cx="-5060.0" cy="-3420.0" r="2.0" stroke="#0000b2" stroke-width="4.0" fill="#0000b2" />
<circle cx="-5000.0" cy="-3440.0" r="2.0" stroke="#b20000" stroke-width="4.0" fill="#b20000" />
<circle cx="-5000.0" cy="-3420.0" r="2.0" stroke="#b20000" stroke-width="4.0" fill="#b20000" />
</g>
<g>
<path d="M -5059,-3294 L -5001,-3294 L -5001,-3246 L -5059,-3246 Z" stroke="#ffffb4" stroke-width="0.0" fill="#ffffb4" fill-opacity="0.7843137254901961"/>
<path d="M -5059,-3294 L -5001,-3294 L -5001,-3246 L -5059,-3246 Z" stroke="#000000" stroke-width="4.0" fill="none"/>
<text text-anchor="start" x="-5056.0" y="-3273.25" fill="#808080" style="font-size:18px">AC</text>
<text text-anchor="start" x="-5056.0" y="-3253.25" fill="#808080" style="font-size:18px">B</text>
<text text-anchor="end" x="-5004.0" y="-3273.25" fill="#808080" style="font-size:18px">ACout</text>
<text text-anchor="end" x="-5004.0" y="-3253.25" fill="#808080" style="font-size:18px">MQout</text>
<text text-anchor="middle" x="-5030.0" y="-3228.5" fill="#808080" style="font-size:18px">multiplicador</text>
<circle cx="-5060.0" cy="-3280.0" r="2.0" stroke="#0000b2" stroke-width="4.0" fill="#0000b2" />
<circle cx="-5060.0" cy="-3260.0" r="2.0" stroke="#0000b2" stroke-width="4.0" fill="#0000b2" />
<circle cx="-5000.0" cy="-3280.0" r="2.0" stroke="#b20000" stroke-width="4.0" fill="#b20000" />
<circle cx="-5000.0" cy="-3260.0" r="2.0" stroke="#b20000" stroke-width="4.0" fill="#b20000" />
</g>
<g>
<path d="M -5059,-3134 L -5001,-3134 L -5001,-3086 L -5059,-3086 Z" stroke="#ffffb4" stroke-width="0.0" fill="#ffffb4" fill-opacity="0.7843137254901961"/>
<path d="M -5059,-3134 L -5001,-3134 L -5001,-3086 L -5059,-3086 Z" stroke="#000000" stroke-width="4.0" fill="none"/>
<text text-anchor="start" x="-5056.0" y="-3113.25" fill="#808080" style="font-size:18px">A</text>
<text text-anchor="start" x="-5056.0" y="-3093.25" fill="#808080" style="font-size:18px">B</text>
<text text-anchor="end" x="-5004.0" y="-3113.25" fill="#808080" style="font-size:18px">Q</text>
<text text-anchor="end" x="-5004.0" y="-3093.25" fill="#808080" style="font-size:18px">Resto</text>
<text text-anchor="middle" x="-5030.0" y="-3068.5" fill="#808080" style="font-size:18px">divisor8bits</text>
<circle cx="-5060.0" cy="-3120.0" r="2.0" stroke="#0000b2" stroke-width="4.0" fill="#0000b2" />
<circle cx="-5060.0" cy="-3100.0" r="2.0" stroke="#0000b2" stroke-width="4.0" fill="#0000b2" />
<circle cx="-5000.0" cy="-3120.0" r="2.0" stroke="#b20000" stroke-width="4.0" fill="#b20000" />
<circle cx="-5000.0" cy="-3100.0" r="2.0" stroke="#b20000" stroke-width="4.0" fill="#b20000" />
</g>
<g>
<path d="M -5059,-3734 L -5001,-3734 L -5001,-3706 L -5059,-3706 Z" stroke="#ffffb4" stroke-width="0.0" fill="#ffffb4" fill-opacity="0.7843137254901961"/>
<path d="M -5059,-3734 L -5001,-3734 L -5001,-3706 L -5059,-3706 Z" stroke="#000000" stroke-width="4.0" fill="none"/>
<text text-anchor="start" x="-5056.0" y="-3713.25" fill="#808080" style="font-size:18px">A</text>
<text text-anchor="end" x="-5004.0" y="-3713.25" fill="#808080" style="font-size:18px">Cout</text>
<text text-anchor="middle" x="-5030.0" y="-3688.5" fill="#808080" style="font-size:18px">shift_dir</text>
<circle cx="-5060.0" cy="-3720.0" r="2.0" stroke="#0000b2" stroke-width="4.0" fill="#0000b2" />
<circle cx="-5000.0" cy="-3720.0" r="2.0" stroke="#b20000" stroke-width="4.0" fill="#b20000" />
</g>
<g>
<path d="M -5059,-3834 L -5001,-3834 L -5001,-3806 L -5059,-3806 Z" stroke="#ffffb4" stroke-width="0.0" fill="#ffffb4" fill-opacity="0.7843137254901961"/>
<path d="M -5059,-3834 L -5001,-3834 L -5001,-3806 L -5059,-3806 Z" stroke="#000000" stroke-width="4.0" fill="none"/>
<text text-anchor="start" x="-5056.0" y="-3813.25" fill="#808080" style="font-size:18px">A</text>
<text text-anchor="end" x="-5004.0" y="-3813.25" fill="#808080" style="font-size:18px">Cout</text>
<text text-anchor="middle" x="-5030.0" y="-3788.5" fill="#808080" style="font-size:18px">shift_esq</text>
<circle cx="-5060.0" cy="-3820.0" r="2.0" stroke="#0000b2" stroke-width="4.0" fill="#0000b2" />
<circle cx="-5000.0" cy="-3820.0" r="2.0" stroke="#b20000" stroke-width="4.0" fill="#b20000" />
</g>
<g>
<path d="M -5059,-3994 L -5001,-3994 L -5001,-3926 L -5059,-3926 Z" stroke="#ffffb4" stroke-width="0.0" fill="#ffffb4" fill-opacity="0.7843137254901961"/>
<path d="M -5059,-3994 L -5001,-3994 L -5001,-3926 L -5059,-3926 Z" stroke="#000000" stroke-width="4.0" fill="none"/>
<text text-anchor="start" x="-5056.0" y="-3973.25" fill="#808080" style="font-size:18px">A</text>
<text text-anchor="start" x="-5056.0" y="-3933.25" fill="#808080" style="font-size:18px">N</text>
<text text-anchor="end" x="-5004.0" y="-3953.25" fill="#808080" style="font-size:18px">ACout</text>
<text text-anchor="middle" x="-5030.0" y="-3908.5" fill="#808080" style="font-size:18px">nand8bits</text>
<circle cx="-5060.0" cy="-3980.0" r="2.0" stroke="#0000b2" stroke-width="4.0" fill="#0000b2" />
<circle cx="-5060.0" cy="-3940.0" r="2.0" stroke="#0000b2" stroke-width="4.0" fill="#0000b2" />
<circle cx="-5000.0" cy="-3960.0" r="2.0" stroke="#b20000" stroke-width="4.0" fill="#b20000" />
</g>
<g>
<path d="M -5059,-4174 L -5001,-4174 L -5001,-4106 L -5059,-4106 Z" stroke="#ffffb4" stroke-width="0.0" fill="#ffffb4" fill-opacity="0.7843137254901961"/>
<path d="M -5059,-4174 L -5001,-4174 L -5001,-4106 L -5059,-4106 Z" stroke="#000000" stroke-width="4.0" fill="none"/>
<text text-anchor="start" x="-5056.0" y="-4153.25" fill="#808080" style="font-size:18px">A</text>
<text text-anchor="start" x="-5056.0" y="-4113.25" fill="#808080" style="font-size:18px">N</text>
<text text-anchor="end" x="-5004.0" y="-4133.25" fill="#808080" style="font-size:18px">ACout</text>
<text text-anchor="middle" x="-5030.0" y="-4088.5" fill="#808080" style="font-size:18px">xor8bits</text>
<circle cx="-5060.0" cy="-4160.0" r="2.0" stroke="#0000b2" stroke-width="4.0" fill="#0000b2" />
<circle cx="-5060.0" cy="-4120.0" r="2.0" stroke="#0000b2" stroke-width="4.0" fill="#0000b2" />
<circle cx="-5000.0" cy="-4140.0" r="2.0" stroke="#b20000" stroke-width="4.0" fill="#b20000" />
</g>
<g>
<path d="M -5000,-4140 L -4986,-4132 L -4986,-4148 Z" stroke="#000000" stroke-width="4.0" fill="none"/>
<text text-anchor="start" x="-4981.0" y="-4133.25" fill="#808080" style="font-size:18px">111</text>
<circle cx="-5000.0" cy="-4140.0" r="2.0" stroke="#0000b2" stroke-width="4.0" fill="#0000b2" />
</g>
<g>
<path d="M -5000,-3960 L -4986,-3952 L -4986,-3968 Z" stroke="#000000" stroke-width="4.0" fill="none"/>
<text text-anchor="start" x="-4981.0" y="-3953.25" fill="#808080" style="font-size:18px">110</text>
<circle cx="-5000.0" cy="-3960.0" r="2.0" stroke="#0000b2" stroke-width="4.0" fill="#0000b2" />
</g>
<g>
<path d="M -5000,-3820 L -4986,-3812 L -4986,-3828 Z" stroke="#000000" stroke-width="4.0" fill="none"/>
<text text-anchor="start" x="-4981.0" y="-3813.25" fill="#808080" style="font-size:18px">101</text>
<circle cx="-5000.0" cy="-3820.0" r="2.0" stroke="#0000b2" stroke-width="4.0" fill="#0000b2" />
</g>
<g>
<path d="M -5000,-3720 L -4986,-3712 L -4986,-3728 Z" stroke="#000000" stroke-width="4.0" fill="none"/>
<text text-anchor="start" x="-4981.0" y="-3713.25" fill="#808080" style="font-size:18px">100</text>
<circle cx="-5000.0" cy="-3720.0" r="2.0" stroke="#0000b2" stroke-width="4.0" fill="#0000b2" />
</g>
<g>
<path d="M -5000,-3600 L -4986,-3592 L -4986,-3608 Z" stroke="#000000" stroke-width="4.0" fill="none"/>
<text text-anchor="start" x="-4981.0" y="-3593.25" fill="#808080" style="font-size:18px">000</text>
<circle cx="-5000.0" cy="-3600.0" r="2.0" stroke="#0000b2" stroke-width="4.0" fill="#0000b2" />
</g>
<g>
<path d="M -5000,-3580 L -4986,-3572 L -4986,-3588 Z" stroke="#000000" stroke-width="4.0" fill="none"/>
<text text-anchor="start" x="-4981.0" y="-3573.25" fill="#808080" style="font-size:18px">Over</text>
<circle cx="-5000.0" cy="-3580.0" r="2.0" stroke="#0000b2" stroke-width="4.0" fill="#0000b2" />
</g>
<g>
<path d="M -5000,-3440 L -4986,-3432 L -4986,-3448 Z" stroke="#000000" stroke-width="4.0" fill="none"/>
<text text-anchor="start" x="-4981.0" y="-3433.25" fill="#808080" style="font-size:18px">001</text>
<circle cx="-5000.0" cy="-3440.0" r="2.0" stroke="#0000b2" stroke-width="4.0" fill="#0000b2" />
</g>
<g>
<path d="M -5000,-3420 L -4986,-3412 L -4986,-3428 Z" stroke="#000000" stroke-width="4.0" fill="none"/>
<text text-anchor="start" x="-4981.0" y="-3413.25" fill="#808080" style="font-size:18px">neg</text>
<circle cx="-5000.0" cy="-3420.0" r="2.0" stroke="#0000b2" stroke-width="4.0" fill="#0000b2" />
</g>
<g>
<path d="M -5000,-3280 L -4986,-3272 L -4986,-3288 Z" stroke="#000000" stroke-width="4.0" fill="none"/>
<text text-anchor="start" x="-4981.0" y="-3273.25" fill="#808080" style="font-size:18px">010</text>
<circle cx="-5000.0" cy="-3280.0" r="2.0" stroke="#0000b2" stroke-width="4.0" fill="#0000b2" />
</g>
<g>
<path d="M -5000,-3260 L -4986,-3252 L -4986,-3268 Z" stroke="#000000" stroke-width="4.0" fill="none"/>
<text text-anchor="start" x="-4981.0" y="-3253.25" fill="#808080" style="font-size:18px">MQ0</text>
<circle cx="-5000.0" cy="-3260.0" r="2.0" stroke="#0000b2" stroke-width="4.0" fill="#0000b2" />
</g>
<g>
<path d="M -5000,-3120 L -4986,-3112 L -4986,-3128 Z" stroke="#000000" stroke-width="4.0" fill="none"/>
<text text-anchor="start" x="-4981.0" y="-3113.25" fill="#808080" style="font-size:18px">011</text>
<circle cx="-5000.0" cy="-3120.0" r="2.0" stroke="#0000b2" stroke-width="4.0" fill="#0000b2" />
</g>
<g>
<path d="M -5000,-3100 L -4986,-3092 L -4986,-3108 Z" stroke="#000000" stroke-width="4.0" fill="none"/>
<text text-anchor="start" x="-4981.0" y="-3093.25" fill="#808080" style="font-size:18px">MQ1</text>
<circle cx="-5000.0" cy="-3100.0" r="2.0" stroke="#0000b2" stroke-width="4.0" fill="#0000b2" />
</g>
<g>
<path d="M -5060,-3100 L -5074,-3108 L -5074,-3092 Z" stroke="#000000" stroke-width="4.0" fill="none"/>
<text text-anchor="end" x="-5079.0" y="-3093.25" fill="#808080" style="font-size:18px">N</text>
<circle cx="-5060.0" cy="-3100.0" r="2.0" stroke="#0000b2" stroke-width="4.0" fill="#0000b2" />
</g>
<g>
<path d="M -5060,-3120 L -5074,-3128 L -5074,-3112 Z" stroke="#000000" stroke-width="4.0" fill="none"/>
<text text-anchor="end" x="-5079.0" y="-3113.25" fill="#808080" style="font-size:18px">AC</text>
<circle cx="-5060.0" cy="-3120.0" r="2.0" stroke="#0000b2" stroke-width="4.0" fill="#0000b2" />
</g>
<g>
<path d="M -5060,-3260 L -5074,-3268 L -5074,-3252 Z" stroke="#000000" stroke-width="4.0" fill="none"/>
<text text-anchor="end" x="-5079.0" y="-3253.25" fill="#808080" style="font-size:18px">N</text>
<circle cx="-5060.0" cy="-3260.0" r="2.0" stroke="#0000b2" stroke-width="4.0" fill="#0000b2" />
</g>
<g>
<path d="M -5060,-3280 L -5074,-3288 L -5074,-3272 Z" stroke="#000000" stroke-width="4.0" fill="none"/>
<text text-anchor="end" x="-5079.0" y="-3273.25" fill="#808080" style="font-size:18px">AC</text>
<circle cx="-5060.0" cy="-3280.0" r="2.0" stroke="#0000b2" stroke-width="4.0" fill="#0000b2" />
</g>
<g>
<path d="M -5060,-3420 L -5074,-3428 L -5074,-3412 Z" stroke="#000000" stroke-width="4.0" fill="none"/>
<text text-anchor="end" x="-5079.0" y="-3413.25" fill="#808080" style="font-size:18px">N</text>
<circle cx="-5060.0" cy="-3420.0" r="2.0" stroke="#0000b2" stroke-width="4.0" fill="#0000b2" />
</g>
<g>
<path d="M -5060,-3440 L -5074,-3448 L -5074,-3432 Z" stroke="#000000" stroke-width="4.0" fill="none"/>
<text text-anchor="end" x="-5079.0" y="-3433.25" fill="#808080" style="font-size:18px">AC</text>
<circle cx="-5060.0" cy="-3440.0" r="2.0" stroke="#0000b2" stroke-width="4.0" fill="#0000b2" />
</g>
<g>
<path d="M -5060,-3580 L -5074,-3588 L -5074,-3572 Z" stroke="#000000" stroke-width="4.0" fill="none"/>
<text text-anchor="end" x="-5079.0" y="-3573.25" fill="#808080" style="font-size:18px">N</text>
<circle cx="-5060.0" cy="-3580.0" r="2.0" stroke="#0000b2" stroke-width="4.0" fill="#0000b2" />
</g>
<g>
<path d="M -5060,-3600 L -5074,-3608 L -5074,-3592 Z" stroke="#000000" stroke-width="4.0" fill="none"/>
<text text-anchor="end" x="-5079.0" y="-3593.25" fill="#808080" style="font-size:18px">AC</text>
<circle cx="-5060.0" cy="-3600.0" r="2.0" stroke="#0000b2" stroke-width="4.0" fill="#0000b2" />
</g>
<g>
<path d="M -5060,-3720 L -5074,-3728 L -5074,-3712 Z" stroke="#000000" stroke-width="4.0" fill="none"/>
<text text-anchor="end" x="-5079.0" y="-3713.25" fill="#808080" style="font-size:18px">AC</text>
<circle cx="-5060.0" cy="-3720.0" r="2.0" stroke="#0000b2" stroke-width="4.0" fill="#0000b2" />
</g>
<g>
<path d="M -5060,-3820 L -5074,-3828 L -5074,-3812 Z" stroke="#000000" stroke-width="4.0" fill="none"/>
<text text-anchor="end" x="-5079.0" y="-3813.25" fill="#808080" style="font-size:18px">AC</text>
<circle cx="-5060.0" cy="-3820.0" r="2.0" stroke="#0000b2" stroke-width="4.0" fill="#0000b2" />
</g>
<g>
<path d="M -5060,-3940 L -5074,-3948 L -5074,-3932 Z" stroke="#000000" stroke-width="4.0" fill="none"/>
<text text-anchor="end" x="-5079.0" y="-3933.25" fill="#808080" style="font-size:18px">N</text>
<circle cx="-5060.0" cy="-3940.0" r="2.0" stroke="#0000b2" stroke-width="4.0" fill="#0000b2" />
</g>
<g>
<path d="M -5060,-3980 L -5074,-3988 L -5074,-3972 Z" stroke="#000000" stroke-width="4.0" fill="none"/>
<text text-anchor="end" x="-5079.0" y="-3973.25" fill="#808080" style="font-size:18px">AC</text>
<circle cx="-5060.0" cy="-3980.0" r="2.0" stroke="#0000b2" stroke-width="4.0" fill="#0000b2" />
</g>
<g>
<path d="M -5060,-4160 L -5074,-4168 L -5074,-4152 Z" stroke="#000000" stroke-width="4.0" fill="none"/>
<text text-anchor="end" x="-5079.0" y="-4153.25" fill="#808080" style="font-size:18px">AC</text>
<circle cx="-5060.0" cy="-4160.0" r="2.0" stroke="#0000b2" stroke-width="4.0" fill="#0000b2" />
</g>
<g>
<path d="M -5060,-4120 L -5074,-4128 L -5074,-4112 Z" stroke="#000000" stroke-width="4.0" fill="none"/>
<text text-anchor="end" x="-5079.0" y="-4113.25" fill="#808080" style="font-size:18px">N</text>
<circle cx="-5060.0" cy="-4120.0" r="2.0" stroke="#0000b2" stroke-width="4.0" fill="#0000b2" />
</g>
<g>
<circle cx="-5444.0" cy="-3780.0" r="9.0" stroke="#000000" stroke-width="4.0" fill="none" />
<circle cx="-5444.0" cy="-3780.0" r="15.0" stroke="#000000" stroke-width="4.0" fill="none" />
<text text-anchor="start" x="-5415.0" y="-3771.0" fill="#000000" style="font-size:24px"><tspan style="font-style:italic;">MQ</tspan></text>
<circle cx="-5460.0" cy="-3780.0" r="2.0" stroke="#0000b2" stroke-width="4.0" fill="#0000b2" />
</g>
<g>
<circle cx="-5444.0" cy="-3920.0" r="9.0" stroke="#000000" stroke-width="4.0" fill="none" />
<circle cx="-5444.0" cy="-3920.0" r="15.0" stroke="#000000" stroke-width="4.0" fill="none" />
<text text-anchor="start" x="-5415.0" y="-3911.0" fill="#000000" style="font-size:24px"><tspan style="font-style:italic;">neg</tspan></text>
<circle cx="-5460.0" cy="-3920.0" r="2.0" stroke="#0000b2" stroke-width="4.0" fill="#0000b2" />
</g>
<g>
<circle cx="-5444.0" cy="-3700.0" r="9.0" stroke="#000000" stroke-width="4.0" fill="none" />
<circle cx="-5444.0" cy="-3700.0" r="15.0" stroke="#000000" stroke-width="4.0" fill="none" />
<text text-anchor="start" x="-5415.0" y="-3691.0" fill="#000000" style="font-size:24px"><tspan style="font-style:italic;">AC</tspan></text>
<circle cx="-5460.0" cy="-3700.0" r="2.0" stroke="#0000b2" stroke-width="4.0" fill="#0000b2" />
</g>
<g>
<path d="M -5820,-3960 L -5834,-3968 L -5834,-3952 Z" stroke="#000000" stroke-width="4.0" fill="none"/>
<text text-anchor="end" x="-5839.0" y="-3953.25" fill="#808080" style="font-size:18px">neg</text>
<circle cx="-5820.0" cy="-3960.0" r="2.0" stroke="#0000b2" stroke-width="4.0" fill="#0000b2" />
</g>
<g>
<path d="M -5670,-3890 L -5719,-3890 L -5719,-3950 L -5670,-3950 C -5660,-3950 -5640,-3940 -5641,-3920 C -5641,-3900 -5660,-3890 -5670,-3890 Z" stroke="#000000" stroke-width="4.0" fill="none"/>
<circle cx="-5730.0" cy="-3900.0" r="8.0" stroke="#000000" stroke-width="4.0" fill="none" />
<circle cx="-5730.0" cy="-3880.0" r="8.0" stroke="#000000" stroke-width="4.0" fill="none" />
<circle cx="-5720.0" cy="-3960.0" r="2.0" stroke="#0000b2" stroke-width="4.0" fill="#0000b2" />
<circle cx="-5720.0" cy="-3940.0" r="2.0" stroke="#0000b2" stroke-width="4.0" fill="#0000b2" />
<circle cx="-5740.0" cy="-3900.0" r="2.0" stroke="#0000b2" stroke-width="4.0" fill="#0000b2" />
<circle cx="-5740.0" cy="-3880.0" r="2.0" stroke="#0000b2" stroke-width="4.0" fill="#0000b2" />
<circle cx="-5640.0" cy="-3920.0" r="2.0" stroke="#b20000" stroke-width="4.0" fill="#b20000" />
</g>
<g>
<path d="M -5820,-3940 L -5834,-3948 L -5834,-3932 Z" stroke="#000000" stroke-width="4.0" fill="none"/>
<text text-anchor="end" x="-5839.0" y="-3933.25" fill="#808080" style="font-size:18px">sAC</text>
<circle cx="-5820.0" cy="-3940.0" r="2.0" stroke="#0000b2" stroke-width="4.0" fill="#0000b2" />
</g>
<g>
<text text-anchor="end" x="-5802.0" y="-3943.0" fill="#808080" style="font-size:12px">0-2</text>
<text text-anchor="start" x="-5778.0" y="-3943.0" fill="#808080" style="font-size:12px">0</text>
<text text-anchor="start" x="-5778.0" y="-3923.0" fill="#808080" style="font-size:12px">1</text>
<text text-anchor="start" x="-5778.0" y="-3903.0" fill="#808080" style="font-size:12px">2</text>
<path d="M -5792,-3942 L -5788,-3942 L -5788,-3898 L -5792,-3898 Z" stroke="#000000" stroke-width="4.0" fill="#000000" fill-opacity="1.0"/>
<circle cx="-5800.0" cy="-3940.0" r="2.0" stroke="#0000b2" stroke-width="4.0" fill="#0000b2" />
<circle cx="-5780.0" cy="-3940.0" r="2.0" stroke="#b20000" stroke-width="4.0" fill="#b20000" />
<circle cx="-5780.0" cy="-3920.0" r="2.0" stroke="#b20000" stroke-width="4.0" fill="#b20000" />
<circle cx="-5780.0" cy="-3900.0" r="2.0" stroke="#b20000" stroke-width="4.0" fill="#b20000" />
</g>
<g>
<circle cx="-5444.0" cy="-4060.0" r="9.0" stroke="#000000" stroke-width="4.0" fill="none" />
<circle cx="-5444.0" cy="-4060.0" r="15.0" stroke="#000000" stroke-width="4.0" fill="none" />
<text text-anchor="start" x="-5415.0" y="-4051.0" fill="#000000" style="font-size:24px"><tspan style="font-style:italic;">Over</tspan></text>
<circle cx="-5460.0" cy="-4060.0" r="2.0" stroke="#0000b2" stroke-width="4.0" fill="#0000b2" />
</g>
<g>
<path d="M -5820,-4100 L -5834,-4108 L -5834,-4092 Z" stroke="#000000" stroke-width="4.0" fill="none"/>
<text text-anchor="end" x="-5839.0" y="-4093.25" fill="#808080" style="font-size:18px">Over</text>
<circle cx="-5820.0" cy="-4100.0" r="2.0" stroke="#0000b2" stroke-width="4.0" fill="#0000b2" />
</g>
<g>
<path d="M -5670,-4030 L -5719,-4030 L -5719,-4090 L -5670,-4090 C -5660,-4090 -5640,-4080 -5641,-4060 C -5641,-4040 -5660,-4030 -5670,-4030 Z" stroke="#000000" stroke-width="4.0" fill="none"/>
<circle cx="-5730.0" cy="-4080.0" r="8.0" stroke="#000000" stroke-width="4.0" fill="none" />
<circle cx="-5730.0" cy="-4040.0" r="8.0" stroke="#000000" stroke-width="4.0" fill="none" />
<circle cx="-5730.0" cy="-4020.0" r="8.0" stroke="#000000" stroke-width="4.0" fill="none" />
<circle cx="-5720.0" cy="-4100.0" r="2.0" stroke="#0000b2" stroke-width="4.0" fill="#0000b2" />
<circle cx="-5740.0" cy="-4080.0" r="2.0" stroke="#0000b2" stroke-width="4.0" fill="#0000b2" />
<circle cx="-5740.0" cy="-4040.0" r="2.0" stroke="#0000b2" stroke-width="4.0" fill="#0000b2" />
<circle cx="-5740.0" cy="-4020.0" r="2.0" stroke="#0000b2" stroke-width="4.0" fill="#0000b2" />
<circle cx="-5640.0" cy="-4060.0" r="2.0" stroke="#b20000" stroke-width="4.0" fill="#b20000" />
</g>
<g>
<path d="M -5820,-4080 L -5834,-4088 L -5834,-4072 Z" stroke="#000000" stroke-width="4.0" fill="none"/>
<text text-anchor="end" x="-5839.0" y="-4073.25" fill="#808080" style="font-size:18px">sAC</text>
<circle cx="-5820.0" cy="-4080.0" r="2.0" stroke="#0000b2" stroke-width="4.0" fill="#0000b2" />
</g>
<g>
<text text-anchor="end" x="-5802.0" y="-4083.0" fill="#808080" style="font-size:12px">0-2</text>
<text text-anchor="start" x="-5778.0" y="-4083.0" fill="#808080" style="font-size:12px">0</text>
<text text-anchor="start" x="-5778.0" y="-4063.0" fill="#808080" style="font-size:12px">1</text>
<text text-anchor="start" x="-5778.0" y="-4043.0" fill="#808080" style="font-size:12px">2</text>
<path d="M -5792,-4082 L -5788,-4082 L -5788,-4038 L -5792,-4038 Z" stroke="#000000" stroke-width="4.0" fill="#000000" fill-opacity="1.0"/>
<circle cx="-5800.0" cy="-4080.0" r="2.0" stroke="#0000b2" stroke-width="4.0" fill="#0000b2" />
<circle cx="-5780.0" cy="-4080.0" r="2.0" stroke="#b20000" stroke-width="4.0" fill="#b20000" />
<circle cx="-5780.0" cy="-4060.0" r="2.0" stroke="#b20000" stroke-width="4.0" fill="#b20000" />
<circle cx="-5780.0" cy="-4040.0" r="2.0" stroke="#b20000" stroke-width="4.0" fill="#b20000" />
</g>
<g>
<path d="M -5480,-3700 L -5494,-3708 L -5494,-3692 Z" stroke="#000000" stroke-width="4.0" fill="none"/>
<text text-anchor="end" x="-5499.0" y="-3693.25" fill="#808080" style="font-size:18px">AC</text>
<circle cx="-5480.0" cy="-3700.0" r="2.0" stroke="#0000b2" stroke-width="4.0" fill="#0000b2" />
</g>
<g>
<path d="M -5480,-3780 L -5494,-3788 L -5494,-3772 Z" stroke="#000000" stroke-width="4.0" fill="none"/>
<text text-anchor="end" x="-5499.0" y="-3773.25" fill="#808080" style="font-size:18px">MQ</text>
<circle cx="-5480.0" cy="-3780.0" r="2.0" stroke="#0000b2" stroke-width="4.0" fill="#0000b2" />
</g>
</g>
</svg>