<?xml version="1.0" encoding="UTF-8" standalone="no"?>
<!-- Created with Digital by H.Neemann -->
<!-- created: Thu Apr 09 05:26:12 BRT 2026 -->

<svg
   xmlns:svg="http://www.w3.org/2000/svg"
   xmlns="http://www.w3.org/2000/svg"
   width="259.05mm"
   height="265.35mm"
   viewBox="-301 -456 1727 1769">
<g stroke-linecap="square">
<path d="M 200,480 L 240,480 L 240,540 L 260,540" stroke="#0000b2" stroke-width="4.0" fill="none"/>
<path d="M 300,1060 L 340,1060" stroke="#0000b2" stroke-width="4.0" fill="none"/>
<path d="M 140,1060 L 180,1060" stroke="#0000b2" stroke-width="4.0" fill="none"/>
<path d="M -240,260 L -200,260" stroke="#0000b2" stroke-width="4.0" fill="none"/>
<path d="M 180,1220 L 220,1220 L 500,1220" stroke="#0000b2" stroke-width="4.0" fill="none"/>
<path d="M 540,1220 L 600,1220 L 1080,1220 L 1080,880 L 1140,880" stroke="#0000b2" stroke-width="4.0" fill="none"/>
<path d="M 1200,900 L 1340,900" stroke="#0000b2" stroke-width="4.0" fill="none"/>
<path d="M 180,-200 L 220,-200 L 260,-200" stroke="#0000b2" stroke-width="4.0" fill="none"/>
<path d="M -220,-360 L -180,-360" stroke="#0000b2" stroke-width="4.0" fill="none"/>
<path d="M 680,560 L 680,840 L 760,840" stroke="#0000b2" stroke-width="4.0" fill="none"/>
<path d="M 800,840 L 860,840" stroke="#0000b2" stroke-width="4.0" fill="none"/>
<path d="M 180,-140 L 260,-140 L 280,-140" stroke="#0000b2" stroke-width="4.0" fill="none"/>
<path d="M -40,300 L 0,300" stroke="#0000b2" stroke-width="4.0" fill="none"/>
<path d="M 220,400 L 260,400" stroke="#0000b2" stroke-width="4.0" fill="none"/>
<path d="M 380,560 L 420,560" stroke="#0000b2" stroke-width="4.0" fill="none"/>
<path d="M 320,560 L 340,560 L 340,520 L 420,520" stroke="#0000b2" stroke-width="4.0" fill="none"/>
<path d="M 480,560 L 540,560 L 580,560" stroke="#0000b2" stroke-width="4.0" fill="none"/>
<path d="M 620,560 L 680,560 L 680,280 L 200,280 L 140,280" stroke="#0000b2" stroke-width="4.0" fill="none"/>
<path d="M -20,1040 L 20,1040 L 80,1040" stroke="#0000b2" stroke-width="4.0" fill="none"/>
<path d="M 200,1060 L 200,1040 L 260,1040 L 340,1040" stroke="#0000b2" stroke-width="4.0" fill="none"/>
<path d="M -60,-180 L 0,-180 L 120,-180" stroke="#0000b2" stroke-width="4.0" fill="none"/>
<path d="M 180,-180 L 460,-180 L 480,-180" stroke="#0000b2" stroke-width="4.0" fill="none"/>
<path d="M -100,-340 L -60,-340" stroke="#0000b2" stroke-width="4.0" fill="none"/>
<path d="M 300,1080 L 340,1080" stroke="#0000b2" stroke-width="4.0" fill="none"/>
<path d="M 400,1080 L 460,1080 L 520,1080" stroke="#0000b2" stroke-width="4.0" fill="none"/>
<path d="M 560,1080 L 680,1080 L 680,900" stroke="#0000b2" stroke-width="4.0" fill="none"/>
<path d="M 200,1080 L 220,1080 L 220,1220" stroke="#0000b2" stroke-width="4.0" fill="none"/>
<path d="M -140,280 L -80,280 L 0,280" stroke="#0000b2" stroke-width="4.0" fill="none"/>
<path d="M 20,280 L 100,280" stroke="#0000b2" stroke-width="4.0" fill="none"/>
<path d="M -100,-380 L 0,-380 L 60,-380" stroke="#0000b2" stroke-width="4.0" fill="none"/>
<path d="M 380,540 L 420,540" stroke="#0000b2" stroke-width="4.0" fill="none"/>
<path d="M 920,860 L 1020,860 L 1140,860" stroke="#0000b2" stroke-width="4.0" fill="none"/>
<path d="M 1200,860 L 1340,860" stroke="#0000b2" stroke-width="4.0" fill="none"/>
<path d="M 180,-160 L 360,-160 L 380,-160" stroke="#0000b2" stroke-width="4.0" fill="none"/>
<path d="M 0,-180 L 0,-160" stroke="#0000b2" stroke-width="4.0" fill="none"/>
<path d="M 0,-400 L 0,-380" stroke="#0000b2" stroke-width="4.0" fill="none"/>
<path d="M 260,960 L 260,1040" stroke="#0000b2" stroke-width="4.0" fill="none"/>
<path d="M 260,-140 L 260,-120" stroke="#0000b2" stroke-width="4.0" fill="none"/>
<path d="M 200,280 L 200,380" stroke="#0000b2" stroke-width="4.0" fill="none"/>
<path d="M 200,420 L 200,460" stroke="#0000b2" stroke-width="4.0" fill="none"/>
<path d="M 360,-160 L 360,-120" stroke="#0000b2" stroke-width="4.0" fill="none"/>
<path d="M 460,960 L 460,1080" stroke="#0000b2" stroke-width="4.0" fill="none"/>
<path d="M 460,-200 L 460,-180 L 460,-160" stroke="#0000b2" stroke-width="4.0" fill="none"/>
<path d="M -80,180 L -80,280" stroke="#0000b2" stroke-width="4.0" fill="none"/>
<path d="M 20,960 L 20,1040" stroke="#0000b2" stroke-width="4.0" fill="none"/>
<path d="M 180,480 L 180,520" stroke="#0000b2" stroke-width="4.0" fill="none"/>
<path d="M 680,840 L 680,900 L -120,900 L -120,1040 L -60,1040" stroke="#0000b2" stroke-width="4.0" fill="none"/>
<path d="M 600,1220 L 600,1280" stroke="#0000b2" stroke-width="4.0" fill="none"/>
<path d="M 540,440 L 540,560" stroke="#0000b2" stroke-width="4.0" fill="none"/>
<path d="M 220,-240 L 220,-200" stroke="#0000b2" stroke-width="4.0" fill="none"/>
<path d="M 1020,760 L 1020,860" stroke="#0000b2" stroke-width="4.0" fill="none"/>
<path d="M -250,260 L -230,260" stroke="#000000" stroke-width="6.0" fill="none"/>
<path d="M 370,560 L 390,560" stroke="#000000" stroke-width="6.0" fill="none"/>
<path d="M 370,540 L 390,540" stroke="#000000" stroke-width="6.0" fill="none"/>
<path d="M -50,300 L -30,300" stroke="#000000" stroke-width="6.0" fill="none"/>
<path d="M 290,1080 L 310,1080" stroke="#000000" stroke-width="6.0" fill="none"/>
<path d="M 290,1060 L 310,1060" stroke="#000000" stroke-width="6.0" fill="none"/>
<path d="M 0,280 L 10,280 L 20,280" stroke="#000000" stroke-width="4.0" fill="none"/>
<path d="M 0,300 L 10,300" stroke="#000000" stroke-width="4.0" fill="none"/>
<path d="M 120,260 L 120,273" stroke="#000000" stroke-width="4.0" fill="none"/>
<path d="M 220,400 L 207,400" stroke="#000000" stroke-width="4.0" fill="none"/>
<path d="M 200,460 L 200,470 L 200,480" stroke="#000000" stroke-width="4.0" fill="none"/>
<path d="M 180,480 L 180,470" stroke="#000000" stroke-width="4.0" fill="none"/>
<path d="M 600,540 L 600,553" stroke="#000000" stroke-width="4.0" fill="none"/>
<path d="M -40,1020 L -40,1033" stroke="#000000" stroke-width="4.0" fill="none"/>
<path d="M 180,1060 L 190,1060 L 200,1060" stroke="#000000" stroke-width="4.0" fill="none"/>
<path d="M 200,1080 L 190,1080" stroke="#000000" stroke-width="4.0" fill="none"/>
<path d="M 540,1060 L 540,1073" stroke="#000000" stroke-width="4.0" fill="none"/>
<path d="M 520,1240 L 520,1227" stroke="#000000" stroke-width="4.0" fill="none"/>
<path d="M 780,820 L 780,833" stroke="#000000" stroke-width="4.0" fill="none"/>
<path d="M 68,-388 L 62,-394" stroke="#000000" stroke-width="4.0" fill="none"/>
<g>
<circle cx="220.0" cy="1220.0" r="4.0" stroke="#0000b2" stroke-width="4.0" fill="#0000b2" />
<circle cx="600.0" cy="1220.0" r="4.0" stroke="#0000b2" stroke-width="4.0" fill="#0000b2" />
<circle cx="680.0" cy="900.0" r="4.0" stroke="#0000b2" stroke-width="4.0" fill="#0000b2" />
<circle cx="220.0" cy="-200.0" r="4.0" stroke="#0000b2" stroke-width="4.0" fill="#0000b2" />
<circle cx="680.0" cy="840.0" r="4.0" stroke="#0000b2" stroke-width="4.0" fill="#0000b2" />
<circle cx="260.0" cy="-140.0" r="4.0" stroke="#0000b2" stroke-width="4.0" fill="#0000b2" />
<circle cx="540.0" cy="560.0" r="4.0" stroke="#0000b2" stroke-width="4.0" fill="#0000b2" />
<circle cx="680.0" cy="560.0" r="4.0" stroke="#0000b2" stroke-width="4.0" fill="#0000b2" />
<circle cx="20.0" cy="1040.0" r="4.0" stroke="#0000b2" stroke-width="4.0" fill="#0000b2" />
<circle cx="260.0" cy="1040.0" r="4.0" stroke="#0000b2" stroke-width="4.0" fill="#0000b2" />
<circle cx="0.0" cy="-180.0" r="4.0" stroke="#0000b2" stroke-width="4.0" fill="#0000b2" />
<circle cx="460.0" cy="-180.0" r="4.0" stroke="#0000b2" stroke-width="4.0" fill="#0000b2" />
<circle cx="460.0" cy="1080.0" r="4.0" stroke="#0000b2" stroke-width="4.0" fill="#0000b2" />
<circle cx="-80.0" cy="280.0" r="4.0" stroke="#0000b2" stroke-width="4.0" fill="#0000b2" />
<circle cx="200.0" cy="280.0" r="4.0" stroke="#0000b2" stroke-width="4.0" fill="#0000b2" />
<circle cx="0.0" cy="-380.0" r="4.0" stroke="#0000b2" stroke-width="4.0" fill="#0000b2" />
<circle cx="1020.0" cy="860.0" r="4.0" stroke="#0000b2" stroke-width="4.0" fill="#0000b2" />
<circle cx="360.0" cy="-160.0" r="4.0" stroke="#0000b2" stroke-width="4.0" fill="#0000b2" />
</g>
<g>
<path d="M 121,-214 L 179,-214 L 179,-126 L 121,-126 Z" stroke="#ffffb4" stroke-width="0.0" fill="#ffffb4" fill-opacity="0.7843137254901961"/>
<path d="M 121,-214 L 179,-214 L 179,-126 L 121,-126 Z" stroke="#000000" stroke-width="4.0" fill="none"/>
<text text-anchor="start" x="124.0" y="-193.25" fill="#808080" style="font-size:18px">CLK</text>
<text text-anchor="start" x="124.0" y="-173.25" fill="#808080" style="font-size:18px">Set</text>
<text text-anchor="end" x="176.0" y="-193.25" fill="#808080" style="font-size:18px">O0</text>
<text text-anchor="end" x="176.0" y="-173.25" fill="#808080" style="font-size:18px">O1</text>
<text text-anchor="end" x="176.0" y="-153.25" fill="#808080" style="font-size:18px">O2</text>
<text text-anchor="end" x="176.0" y="-133.25" fill="#808080" style="font-size:18px">O3</text>
<text text-anchor="middle" x="150.0" y="-108.5" fill="#808080" style="font-size:18px">contador_de_anel4bits</text>
<circle cx="120.0" cy="-200.0" r="2.0" stroke="#0000b2" stroke-width="4.0" fill="#0000b2" />
<circle cx="120.0" cy="-180.0" r="2.0" stroke="#0000b2" stroke-width="4.0" fill="#0000b2" />
<circle cx="180.0" cy="-200.0" r="2.0" stroke="#b20000" stroke-width="4.0" fill="#b20000" />
<circle cx="180.0" cy="-180.0" r="2.0" stroke="#b20000" stroke-width="4.0" fill="#b20000" />
<circle cx="180.0" cy="-160.0" r="2.0" stroke="#b20000" stroke-width="4.0" fill="#b20000" />
<circle cx="180.0" cy="-140.0" r="2.0" stroke="#b20000" stroke-width="4.0" fill="#b20000" />
</g>
<g>
<path d="M -199,246 L -141,246 L -141,314 L -199,314 Z" stroke="#ffffb4" stroke-width="0.0" fill="#ffffb4" fill-opacity="0.7843137254901961"/>
<path d="M -199,246 L -141,246 L -141,314 L -199,314 Z" stroke="#000000" stroke-width="4.0" fill="none"/>
<text text-anchor="start" x="-196.0" y="266.75" fill="#808080" style="font-size:18px">Set</text>
<text text-anchor="start" x="-196.0" y="286.75" fill="#808080" style="font-size:18px">CLK</text>
<text text-anchor="start" x="-196.0" y="306.75" fill="#808080" style="font-size:18px">Clr</text>
<text text-anchor="end" x="-144.0" y="286.75" fill="#808080" style="font-size:18px">O</text>
<text text-anchor="middle" x="-170.0" y="331.5" fill="#808080" style="font-size:18px">contador4bits</text>
<circle cx="-200.0" cy="260.0" r="2.0" stroke="#0000b2" stroke-width="4.0" fill="#0000b2" />
<circle cx="-200.0" cy="280.0" r="2.0" stroke="#0000b2" stroke-width="4.0" fill="#0000b2" />
<circle cx="-200.0" cy="300.0" r="2.0" stroke="#0000b2" stroke-width="4.0" fill="#0000b2" />
<circle cx="-140.0" cy="280.0" r="2.0" stroke="#b20000" stroke-width="4.0" fill="#b20000" />
</g>
<g>
<circle cx="-80.0" cy="164.0" r="9.0" stroke="#000000" stroke-width="4.0" fill="none" />
<circle cx="-80.0" cy="164.0" r="15.0" stroke="#000000" stroke-width="4.0" fill="none" />
<circle cx="-80.0" cy="180.0" r="2.0" stroke="#0000b2" stroke-width="4.0" fill="#0000b2" />
</g>
<g>
<path d="M -200,280 L -214,272 L -214,288 Z" stroke="#000000" stroke-width="4.0" fill="none"/>
<text text-anchor="end" x="-219.0" y="286.75" fill="#808080" style="font-size:18px">CLK<tspan style="font-size:80%;baseline-shift:sub;">PC</tspan></text>
<circle cx="-200.0" cy="280.0" r="2.0" stroke="#0000b2" stroke-width="4.0" fill="#0000b2" />
</g>
<g>
<path d="M -200,300 L -214,292 L -214,308 Z" stroke="#000000" stroke-width="4.0" fill="none"/>
<text text-anchor="end" x="-219.0" y="306.75" fill="#808080" style="font-size:18px">CLR</text>
<circle cx="-200.0" cy="300.0" r="2.0" stroke="#0000b2" stroke-width="4.0" fill="#0000b2" />
</g>
<g>
<circle cx="-240.0" cy="260.0" r="2.0" stroke="#b20000" stroke-width="4.0" fill="#b20000" />
</g>
<g>
<text text-anchor="end" x="-2.0" y="277.0" fill="#808080" style="font-size:12px">0-3</text>
<text text-anchor="end" x="-2.0" y="297.0" fill="#808080" style="font-size:12px">4-7</text>
<text text-anchor="start" x="22.0" y="277.0" fill="#808080" style="font-size:12px">0-7</text>
<path d="M 8,278 L 12,278 L 12,302 L 8,302 Z" stroke="#000000" stroke-width="4.0" fill="#000000" fill-opacity="1.0"/>
<circle cx="0.0" cy="280.0" r="2.0" stroke="#0000b2" stroke-width="4.0" fill="#0000b2" />
<circle cx="0.0" cy="300.0" r="2.0" stroke="#0000b2" stroke-width="4.0" fill="#0000b2" />
<circle cx="20.0" cy="280.0" r="2.0" stroke="#b20000" stroke-width="4.0" fill="#b20000" />
</g>
<g>
<path d="M 101,268 L 139,280 L 101,292 Z" stroke="#000000" stroke-width="4.0" fill="none"/>
<circle cx="100.0" cy="280.0" r="2.0" stroke="#0000b2" stroke-width="4.0" fill="#0000b2" />
<circle cx="120.0" cy="260.0" r="2.0" stroke="#0000b2" stroke-width="4.0" fill="#0000b2" />
<circle cx="140.0" cy="280.0" r="2.0" stroke="#b20000" stroke-width="4.0" fill="#b20000" />
</g>
<g>
<path d="M 212,381 L 200,419 L 188,381 Z" stroke="#000000" stroke-width="4.0" fill="none"/>
<circle cx="200.0" cy="380.0" r="2.0" stroke="#0000b2" stroke-width="4.0" fill="#0000b2" />
<circle cx="220.0" cy="400.0" r="2.0" stroke="#0000b2" stroke-width="4.0" fill="#0000b2" />
<circle cx="200.0" cy="420.0" r="2.0" stroke="#b20000" stroke-width="4.0" fill="#b20000" />
</g>
<g>
<path d="M 260,400 L 274,408 L 274,392 Z" stroke="#000000" stroke-width="4.0" fill="none"/>
<text text-anchor="start" x="279.0" y="406.75" fill="#808080" style="font-size:18px">MAR</text>
<circle cx="260.0" cy="400.0" r="2.0" stroke="#0000b2" stroke-width="4.0" fill="#0000b2" />
</g>
<g>
<text text-anchor="start" x="203.0" y="467.0" fill="#808080" style="font-size:12px" transform="rotate(-90,203.0,458.0)" >0-7</text>
<text text-anchor="end" x="203.0" y="491.0" fill="#808080" style="font-size:12px" transform="rotate(-90,203.0,482.0)" >0-3</text>
<text text-anchor="end" x="183.0" y="491.0" fill="#808080" style="font-size:12px" transform="rotate(-90,183.0,482.0)" >4-7</text>
<path d="M 202,468 L 202,472 L 178,472 L 178,468 Z" stroke="#000000" stroke-width="4.0" fill="#000000" fill-opacity="1.0"/>
<circle cx="200.0" cy="460.0" r="2.0" stroke="#0000b2" stroke-width="4.0" fill="#0000b2" />
<circle cx="200.0" cy="480.0" r="2.0" stroke="#b20000" stroke-width="4.0" fill="#b20000" />
<circle cx="180.0" cy="480.0" r="2.0" stroke="#b20000" stroke-width="4.0" fill="#b20000" />
</g>
<g>
<path d="M 261,530 L 319,530 L 319,590 L 261,590 Z" stroke="#000000" stroke-width="4.0" fill="none"/>
<text text-anchor="middle" x="290.0" y="522.0" fill="#000000" style="font-size:24px">MAR</text>
<text text-anchor="start" x="264.0" y="546.75" fill="#808080" style="font-size:18px">D</text>
<path d="M 261,567 L 268,560 L 261,553" stroke="#000000" stroke-width="2.0" fill="none"/>
<text text-anchor="start" x="271.0" y="566.75" fill="#808080" style="font-size:18px">C</text>
<text text-anchor="start" x="264.0" y="586.75" fill="#808080" style="font-size:18px">en</text>
<text text-anchor="end" x="316.0" y="566.75" fill="#808080" style="font-size:18px">Q</text>
<text text-anchor="middle" x="290.0" y="607.5" fill="#808080" style="font-size:18px">Reg</text>
<circle cx="260.0" cy="540.0" r="2.0" stroke="#0000b2" stroke-width="4.0" fill="#0000b2" />
<circle cx="260.0" cy="560.0" r="2.0" stroke="#0000b2" stroke-width="4.0" fill="#0000b2" />
<circle cx="260.0" cy="580.0" r="2.0" stroke="#0000b2" stroke-width="4.0" fill="#0000b2" />
<circle cx="320.0" cy="560.0" r="2.0" stroke="#b20000" stroke-width="4.0" fill="#b20000" />
</g>
<g>
<circle cx="180.0" cy="536.0" r="9.0" stroke="#000000" stroke-width="4.0" fill="none" />
<circle cx="180.0" cy="536.0" r="15.0" stroke="#000000" stroke-width="4.0" fill="none" />
<circle cx="180.0" cy="520.0" r="2.0" stroke="#0000b2" stroke-width="4.0" fill="#0000b2" />
</g>
<g>
<path d="M 260,560 L 246,552 L 246,568 Z" stroke="#000000" stroke-width="4.0" fill="none"/>
<text text-anchor="end" x="241.0" y="566.75" fill="#808080" style="font-size:18px">CLK</text>
<circle cx="260.0" cy="560.0" r="2.0" stroke="#0000b2" stroke-width="4.0" fill="#0000b2" />
</g>
<g>
<path d="M 260,580 L 246,572 L 246,588 Z" stroke="#000000" stroke-width="4.0" fill="none"/>
<text text-anchor="end" x="241.0" y="586.75" fill="#808080" style="font-size:18px">MAR</text>
<circle cx="260.0" cy="580.0" r="2.0" stroke="#0000b2" stroke-width="4.0" fill="#0000b2" />
</g>
<g>
<path d="M 421,510 L 479,510 L 479,610 L 421,610 Z" stroke="#000000" stroke-width="4.0" fill="none"/>
<text text-anchor="middle" x="450.0" y="502.0" fill="#000000" style="font-size:24px">operações</text>
<text text-anchor="start" x="424.0" y="526.75" fill="#808080" style="font-size:18px">A</text>
<text text-anchor="start" x="424.0" y="546.75" fill="#808080" style="font-size:18px">Din</text>
<text text-anchor="start" x="424.0" y="566.75" fill="#808080" style="font-size:18px">str</text>
<path d="M 421,587 L 428,580 L 421,573" stroke="#000000" stroke-width="2.0" fill="none"/>
<text text-anchor="start" x="431.0" y="586.75" fill="#808080" style="font-size:18px">C</text>
<text text-anchor="start" x="424.0" y="606.75" fill="#808080" style="font-size:18px">ld</text>
<text text-anchor="end" x="476.0" y="566.75" fill="#808080" style="font-size:18px">D</text>
<text text-anchor="middle" x="450.0" y="627.5" fill="#808080" style="font-size:18px">EEPROM</text>
<circle cx="420.0" cy="520.0" r="2.0" stroke="#0000b2" stroke-width="4.0" fill="#0000b2" />
<circle cx="420.0" cy="540.0" r="2.0" stroke="#0000b2" stroke-width="4.0" fill="#0000b2" />
<circle cx="420.0" cy="560.0" r="2.0" stroke="#0000b2" stroke-width="4.0" fill="#0000b2" />
<circle cx="420.0" cy="580.0" r="2.0" stroke="#0000b2" stroke-width="4.0" fill="#0000b2" />
<circle cx="420.0" cy="600.0" r="2.0" stroke="#0000b2" stroke-width="4.0" fill="#0000b2" />
<circle cx="480.0" cy="560.0" r="2.0" stroke="#b20000" stroke-width="4.0" fill="#b20000" />
</g>
<g>
<path d="M 420,580 L 406,572 L 406,588 Z" stroke="#000000" stroke-width="4.0" fill="none"/>
<text text-anchor="end" x="401.0" y="586.75" fill="#808080" style="font-size:18px">CLK</text>
<circle cx="420.0" cy="580.0" r="2.0" stroke="#0000b2" stroke-width="4.0" fill="#0000b2" />
</g>
<g>
<path d="M 420,600 L 406,592 L 406,608 Z" stroke="#000000" stroke-width="4.0" fill="none"/>
<text text-anchor="end" x="401.0" y="606.75" fill="#808080" style="font-size:18px">operações<tspan style="font-size:80%;baseline-shift:sub;">EN</tspan></text>
<circle cx="420.0" cy="600.0" r="2.0" stroke="#0000b2" stroke-width="4.0" fill="#0000b2" />
</g>
<g>
<circle cx="380.0" cy="560.0" r="2.0" stroke="#b20000" stroke-width="4.0" fill="#b20000" />
</g>
<g>
<circle cx="380.0" cy="540.0" r="2.0" stroke="#b20000" stroke-width="4.0" fill="#b20000" />
</g>
<g>
<path d="M 581,548 L 619,560 L 581,572 Z" stroke="#000000" stroke-width="4.0" fill="none"/>
<circle cx="580.0" cy="560.0" r="2.0" stroke="#0000b2" stroke-width="4.0" fill="#0000b2" />
<circle cx="600.0" cy="540.0" r="2.0" stroke="#0000b2" stroke-width="4.0" fill="#0000b2" />
<circle cx="620.0" cy="560.0" r="2.0" stroke="#b20000" stroke-width="4.0" fill="#b20000" />
</g>
<g>
<path d="M 120,260 L 128,246 L 112,246 Z" stroke="#000000" stroke-width="4.0" fill="none"/>
<text text-anchor="start" x="120.0" y="247.75" fill="#808080" style="font-size:18px" transform="rotate(-90,120.0,241.0)" >PC<tspan style="font-size:80%;baseline-shift:sub;">EN</tspan></text>
<circle cx="120.0" cy="260.0" r="2.0" stroke="#0000b2" stroke-width="4.0" fill="#0000b2" />
</g>
<g>
<path d="M 600,540 L 608,526 L 592,526 Z" stroke="#000000" stroke-width="4.0" fill="none"/>
<text text-anchor="start" x="600.0" y="527.75" fill="#808080" style="font-size:18px" transform="rotate(-90,600.0,521.0)" >operações<tspan style="font-size:80%;baseline-shift:sub;">EN</tspan></text>
<circle cx="600.0" cy="540.0" r="2.0" stroke="#0000b2" stroke-width="4.0" fill="#0000b2" />
</g>
<g>
<circle cx="540.0" cy="424.0" r="9.0" stroke="#000000" stroke-width="4.0" fill="none" />
<circle cx="540.0" cy="424.0" r="15.0" stroke="#000000" stroke-width="4.0" fill="none" />
<circle cx="540.0" cy="440.0" r="2.0" stroke="#0000b2" stroke-width="4.0" fill="#0000b2" />
</g>
<g>
<circle cx="-40.0" cy="300.0" r="2.0" stroke="#b20000" stroke-width="4.0" fill="#b20000" />
</g>
<g>
<path d="M 81,1030 L 139,1030 L 139,1090 L 81,1090 Z" stroke="#000000" stroke-width="4.0" fill="none"/>
<text text-anchor="middle" x="110.0" y="1022.0" fill="#000000" style="font-size:24px">IR</text>
<text text-anchor="start" x="84.0" y="1046.75" fill="#808080" style="font-size:18px">D</text>
<path d="M 81,1067 L 88,1060 L 81,1053" stroke="#000000" stroke-width="2.0" fill="none"/>
<text text-anchor="start" x="91.0" y="1066.75" fill="#808080" style="font-size:18px">C</text>
<text text-anchor="start" x="84.0" y="1086.75" fill="#808080" style="font-size:18px">en</text>
<text text-anchor="end" x="136.0" y="1066.75" fill="#808080" style="font-size:18px">Q</text>
<text text-anchor="middle" x="110.0" y="1107.5" fill="#808080" style="font-size:18px">Reg</text>
<circle cx="80.0" cy="1040.0" r="2.0" stroke="#0000b2" stroke-width="4.0" fill="#0000b2" />
<circle cx="80.0" cy="1060.0" r="2.0" stroke="#0000b2" stroke-width="4.0" fill="#0000b2" />
<circle cx="80.0" cy="1080.0" r="2.0" stroke="#0000b2" stroke-width="4.0" fill="#0000b2" />
<circle cx="140.0" cy="1060.0" r="2.0" stroke="#b20000" stroke-width="4.0" fill="#b20000" />
</g>
<g>
<path d="M 341,1030 L 399,1030 L 399,1130 L 341,1130 Z" stroke="#000000" stroke-width="4.0" fill="none"/>
<text text-anchor="middle" x="370.0" y="1022.0" fill="#000000" style="font-size:24px">operandos</text>
<text text-anchor="start" x="344.0" y="1046.75" fill="#808080" style="font-size:18px">A</text>
<text text-anchor="start" x="344.0" y="1066.75" fill="#808080" style="font-size:18px">Din</text>
<text text-anchor="start" x="344.0" y="1086.75" fill="#808080" style="font-size:18px">str</text>
<path d="M 341,1107 L 348,1100 L 341,1093" stroke="#000000" stroke-width="2.0" fill="none"/>
<text text-anchor="start" x="351.0" y="1106.75" fill="#808080" style="font-size:18px">C</text>
<text text-anchor="start" x="344.0" y="1126.75" fill="#808080" style="font-size:18px">ld</text>
<text text-anchor="end" x="396.0" y="1086.75" fill="#808080" style="font-size:18px">D</text>
<text text-anchor="middle" x="370.0" y="1147.5" fill="#808080" style="font-size:18px">EEPROM</text>
<circle cx="340.0" cy="1040.0" r="2.0" stroke="#0000b2" stroke-width="4.0" fill="#0000b2" />
<circle cx="340.0" cy="1060.0" r="2.0" stroke="#0000b2" stroke-width="4.0" fill="#0000b2" />
<circle cx="340.0" cy="1080.0" r="2.0" stroke="#0000b2" stroke-width="4.0" fill="#0000b2" />
<circle cx="340.0" cy="1100.0" r="2.0" stroke="#0000b2" stroke-width="4.0" fill="#0000b2" />
<circle cx="340.0" cy="1120.0" r="2.0" stroke="#0000b2" stroke-width="4.0" fill="#0000b2" />
<circle cx="400.0" cy="1080.0" r="2.0" stroke="#b20000" stroke-width="4.0" fill="#b20000" />
</g>
<g>
<path d="M 340,1100 L 326,1092 L 326,1108 Z" stroke="#000000" stroke-width="4.0" fill="none"/>
<text text-anchor="end" x="321.0" y="1106.75" fill="#808080" style="font-size:18px">CLK</text>
<circle cx="340.0" cy="1100.0" r="2.0" stroke="#0000b2" stroke-width="4.0" fill="#0000b2" />
</g>
<g>
<path d="M 340,1120 L 326,1112 L 326,1128 Z" stroke="#000000" stroke-width="4.0" fill="none"/>
<text text-anchor="end" x="321.0" y="1126.75" fill="#808080" style="font-size:18px">operando<tspan style="font-size:80%;baseline-shift:sub;">EN</tspan></text>
<circle cx="340.0" cy="1120.0" r="2.0" stroke="#0000b2" stroke-width="4.0" fill="#0000b2" />
</g>
<g>
<circle cx="300.0" cy="1080.0" r="2.0" stroke="#b20000" stroke-width="4.0" fill="#b20000" />
</g>
<g>
<circle cx="300.0" cy="1060.0" r="2.0" stroke="#b20000" stroke-width="4.0" fill="#b20000" />
</g>
<g>
<path d="M -59,1028 L -21,1040 L -59,1052 Z" stroke="#000000" stroke-width="4.0" fill="none"/>
<circle cx="-60.0" cy="1040.0" r="2.0" stroke="#0000b2" stroke-width="4.0" fill="#0000b2" />
<circle cx="-40.0" cy="1020.0" r="2.0" stroke="#0000b2" stroke-width="4.0" fill="#0000b2" />
<circle cx="-20.0" cy="1040.0" r="2.0" stroke="#b20000" stroke-width="4.0" fill="#b20000" />
</g>
<g>
<path d="M -40,1020 L -32,1006 L -48,1006 Z" stroke="#000000" stroke-width="4.0" fill="none"/>
<text text-anchor="start" x="-40.0" y="1007.75" fill="#808080" style="font-size:18px" transform="rotate(-90,-40.0,1001.0)" >IR<tspan style="font-size:80%;baseline-shift:sub;">LOAD</tspan></text>
<circle cx="-40.0" cy="1020.0" r="2.0" stroke="#0000b2" stroke-width="4.0" fill="#0000b2" />
</g>
<g>
<text text-anchor="end" x="178.0" y="1057.0" fill="#808080" style="font-size:12px">0-7</text>
<text text-anchor="start" x="202.0" y="1057.0" fill="#808080" style="font-size:12px">0-4</text>
<text text-anchor="start" x="202.0" y="1077.0" fill="#808080" style="font-size:12px">5-7</text>
<path d="M 188,1058 L 192,1058 L 192,1082 L 188,1082 Z" stroke="#000000" stroke-width="4.0" fill="#000000" fill-opacity="1.0"/>
<circle cx="180.0" cy="1060.0" r="2.0" stroke="#0000b2" stroke-width="4.0" fill="#0000b2" />
<circle cx="200.0" cy="1060.0" r="2.0" stroke="#b20000" stroke-width="4.0" fill="#b20000" />
<circle cx="200.0" cy="1080.0" r="2.0" stroke="#b20000" stroke-width="4.0" fill="#b20000" />
</g>
<g>
<path d="M 521,1068 L 559,1080 L 521,1092 Z" stroke="#000000" stroke-width="4.0" fill="none"/>
<circle cx="520.0" cy="1080.0" r="2.0" stroke="#0000b2" stroke-width="4.0" fill="#0000b2" />
<circle cx="540.0" cy="1060.0" r="2.0" stroke="#0000b2" stroke-width="4.0" fill="#0000b2" />
<circle cx="560.0" cy="1080.0" r="2.0" stroke="#b20000" stroke-width="4.0" fill="#b20000" />
</g>
<g>
<path d="M 540,1060 L 548,1046 L 532,1046 Z" stroke="#000000" stroke-width="4.0" fill="none"/>
<text text-anchor="start" x="540.0" y="1047.75" fill="#808080" style="font-size:18px" transform="rotate(-90,540.0,1041.0)" >operando<tspan style="font-size:80%;baseline-shift:sub;">EN</tspan></text>
<circle cx="540.0" cy="1060.0" r="2.0" stroke="#0000b2" stroke-width="4.0" fill="#0000b2" />
</g>
<g>
<circle cx="20.0" cy="944.0" r="9.0" stroke="#000000" stroke-width="4.0" fill="none" />
<circle cx="20.0" cy="944.0" r="15.0" stroke="#000000" stroke-width="4.0" fill="none" />
<circle cx="20.0" cy="960.0" r="2.0" stroke="#0000b2" stroke-width="4.0" fill="#0000b2" />
</g>
<g>
<circle cx="260.0" cy="944.0" r="9.0" stroke="#000000" stroke-width="4.0" fill="none" />
<circle cx="260.0" cy="944.0" r="15.0" stroke="#000000" stroke-width="4.0" fill="none" />
<circle cx="260.0" cy="960.0" r="2.0" stroke="#0000b2" stroke-width="4.0" fill="#0000b2" />
</g>
<g>
<circle cx="460.0" cy="944.0" r="9.0" stroke="#000000" stroke-width="4.0" fill="none" />
<circle cx="460.0" cy="944.0" r="15.0" stroke="#000000" stroke-width="4.0" fill="none" />
<circle cx="460.0" cy="960.0" r="2.0" stroke="#0000b2" stroke-width="4.0" fill="#0000b2" />
</g>
<g>
<path d="M 80,1060 L 66,1052 L 66,1068 Z" stroke="#000000" stroke-width="4.0" fill="none"/>
<text text-anchor="end" x="61.0" y="1066.75" fill="#808080" style="font-size:18px">CLK</text>
<circle cx="80.0" cy="1060.0" r="2.0" stroke="#0000b2" stroke-width="4.0" fill="#0000b2" />
</g>
<g>
<path d="M 80,1080 L 66,1072 L 66,1088 Z" stroke="#000000" stroke-width="4.0" fill="none"/>
<text text-anchor="end" x="61.0" y="1086.75" fill="#808080" style="font-size:18px">IR<tspan style="font-size:80%;baseline-shift:sub;">LOAD</tspan></text>
<circle cx="80.0" cy="1080.0" r="2.0" stroke="#0000b2" stroke-width="4.0" fill="#0000b2" />
</g>
<g>
<path d="M 501,1208 L 539,1220 L 501,1232 Z" stroke="#000000" stroke-width="4.0" fill="none"/>
<circle cx="500.0" cy="1220.0" r="2.0" stroke="#0000b2" stroke-width="4.0" fill="#0000b2" />
<circle cx="520.0" cy="1240.0" r="2.0" stroke="#0000b2" stroke-width="4.0" fill="#0000b2" />
<circle cx="540.0" cy="1220.0" r="2.0" stroke="#b20000" stroke-width="4.0" fill="#b20000" />
</g>
<g>
<path d="M 520,1240 L 512,1254 L 528,1254 Z" stroke="#000000" stroke-width="4.0" fill="none"/>
<text text-anchor="end" x="520.0" y="1265.75" fill="#808080" style="font-size:18px" transform="rotate(-90,520.0,1259.0)" >ALU</text>
<circle cx="520.0" cy="1240.0" r="2.0" stroke="#0000b2" stroke-width="4.0" fill="#0000b2" />
</g>
<g>
<circle cx="600.0" cy="1296.0" r="9.0" stroke="#000000" stroke-width="4.0" fill="none" />
<circle cx="600.0" cy="1296.0" r="15.0" stroke="#000000" stroke-width="4.0" fill="none" />
<circle cx="600.0" cy="1280.0" r="2.0" stroke="#0000b2" stroke-width="4.0" fill="#0000b2" />
</g>
<g>
<circle cx="164.0" cy="1220.0" r="9.0" stroke="#000000" stroke-width="4.0" fill="none" />
<circle cx="164.0" cy="1220.0" r="15.0" stroke="#000000" stroke-width="4.0" fill="none" />
<circle cx="180.0" cy="1220.0" r="2.0" stroke="#0000b2" stroke-width="4.0" fill="#0000b2" />
</g>
<g>
<path d="M 761,828 L 799,840 L 761,852 Z" stroke="#000000" stroke-width="4.0" fill="none"/>
<circle cx="760.0" cy="840.0" r="2.0" stroke="#0000b2" stroke-width="4.0" fill="#0000b2" />
<circle cx="780.0" cy="820.0" r="2.0" stroke="#0000b2" stroke-width="4.0" fill="#0000b2" />
<circle cx="800.0" cy="840.0" r="2.0" stroke="#b20000" stroke-width="4.0" fill="#b20000" />
</g>
<g>
<path d="M 780,820 L 788,806 L 772,806 Z" stroke="#000000" stroke-width="4.0" fill="none"/>
<text text-anchor="start" x="780.0" y="807.75" fill="#808080" style="font-size:18px" transform="rotate(-90,780.0,801.0)" >B</text>
<circle cx="780.0" cy="820.0" r="2.0" stroke="#0000b2" stroke-width="4.0" fill="#0000b2" />
</g>
<g>
<path d="M 861,830 L 919,830 L 919,890 L 861,890 Z" stroke="#000000" stroke-width="4.0" fill="none"/>
<text text-anchor="start" x="864.0" y="846.75" fill="#808080" style="font-size:18px">D</text>
<path d="M 861,867 L 868,860 L 861,853" stroke="#000000" stroke-width="2.0" fill="none"/>
<text text-anchor="start" x="871.0" y="866.75" fill="#808080" style="font-size:18px">C</text>
<text text-anchor="start" x="864.0" y="886.75" fill="#808080" style="font-size:18px">en</text>
<text text-anchor="end" x="916.0" y="866.75" fill="#808080" style="font-size:18px">Q</text>
<text text-anchor="middle" x="890.0" y="907.5" fill="#808080" style="font-size:18px">Reg</text>
<circle cx="860.0" cy="840.0" r="2.0" stroke="#0000b2" stroke-width="4.0" fill="#0000b2" />
<circle cx="860.0" cy="860.0" r="2.0" stroke="#0000b2" stroke-width="4.0" fill="#0000b2" />
<circle cx="860.0" cy="880.0" r="2.0" stroke="#0000b2" stroke-width="4.0" fill="#0000b2" />
<circle cx="920.0" cy="860.0" r="2.0" stroke="#b20000" stroke-width="4.0" fill="#b20000" />
</g>
<g>
<path d="M 860,860 L 846,852 L 846,868 Z" stroke="#000000" stroke-width="4.0" fill="none"/>
<text text-anchor="end" x="841.0" y="866.75" fill="#808080" style="font-size:18px">CLK</text>
<circle cx="860.0" cy="860.0" r="2.0" stroke="#0000b2" stroke-width="4.0" fill="#0000b2" />
</g>
<g>
<path d="M 860,880 L 846,872 L 846,888 Z" stroke="#000000" stroke-width="4.0" fill="none"/>
<text text-anchor="end" x="841.0" y="886.75" fill="#808080" style="font-size:18px">B</text>
<circle cx="860.0" cy="880.0" r="2.0" stroke="#0000b2" stroke-width="4.0" fill="#0000b2" />
</g>
<g>
<circle cx="1020.0" cy="744.0" r="9.0" stroke="#000000" stroke-width="4.0" fill="none" />
<circle cx="1020.0" cy="744.0" r="15.0" stroke="#000000" stroke-width="4.0" fill="none" />
<circle cx="1020.0" cy="760.0" r="2.0" stroke="#0000b2" stroke-width="4.0" fill="#0000b2" />
</g>
<g>
<path d="M 1140,900 L 1126,892 L 1126,908 Z" stroke="#000000" stroke-width="4.0" fill="none"/>
<text text-anchor="end" x="1121.0" y="906.75" fill="#808080" style="font-size:18px">CLK</text>
<circle cx="1140.0" cy="900.0" r="2.0" stroke="#0000b2" stroke-width="4.0" fill="#0000b2" />
</g>
<g>
<circle cx="1356.0" cy="860.0" r="9.0" stroke="#000000" stroke-width="4.0" fill="none" />
<circle cx="1356.0" cy="860.0" r="15.0" stroke="#000000" stroke-width="4.0" fill="none" />
<text text-anchor="start" x="1385.0" y="869.0" fill="#000000" style="font-size:24px"><tspan style="font-style:italic;">MQ</tspan></text>
<circle cx="1340.0" cy="860.0" r="2.0" stroke="#0000b2" stroke-width="4.0" fill="#0000b2" />
</g>
<g>
<circle cx="1356.0" cy="900.0" r="9.0" stroke="#000000" stroke-width="4.0" fill="none" />
<circle cx="1356.0" cy="900.0" r="15.0" stroke="#000000" stroke-width="4.0" fill="none" />
<text text-anchor="start" x="1385.0" y="909.0" fill="#000000" style="font-size:24px"><tspan style="font-style:italic;">AC</tspan></text>
<circle cx="1340.0" cy="900.0" r="2.0" stroke="#0000b2" stroke-width="4.0" fill="#0000b2" />
</g>
<g>
<path d="M 120,-200 L 106,-208 L 106,-192 Z" stroke="#000000" stroke-width="4.0" fill="none"/>
<text text-anchor="end" x="101.0" y="-193.25" fill="#808080" style="font-size:18px">CLK</text>
<circle cx="120.0" cy="-200.0" r="2.0" stroke="#0000b2" stroke-width="4.0" fill="#0000b2" />
</g>
<g>
<path d="M 260,-200 L 274,-192 L 274,-208 Z" stroke="#000000" stroke-width="4.0" fill="none"/>
<text text-anchor="start" x="279.0" y="-193.25" fill="#808080" style="font-size:18px">PC<tspan style="font-size:80%;baseline-shift:sub;">EN</tspan></text>
<circle cx="260.0" cy="-200.0" r="2.0" stroke="#0000b2" stroke-width="4.0" fill="#0000b2" />
</g>
<g>
<path d="M 220,-240 L 228,-254 L 212,-254 Z" stroke="#000000" stroke-width="4.0" fill="none"/>
<text text-anchor="start" x="220.0" y="-252.25" fill="#808080" style="font-size:18px" transform="rotate(-90,220.0,-259.0)" >MAR</text>
<circle cx="220.0" cy="-240.0" r="2.0" stroke="#0000b2" stroke-width="4.0" fill="#0000b2" />
</g>
<g>
<path d="M 260,-120 L 252,-106 L 268,-106 Z" stroke="#000000" stroke-width="4.0" fill="none"/>
<text text-anchor="end" x="260.0" y="-94.25" fill="#808080" style="font-size:18px" transform="rotate(-90,260.0,-101.0)" >AC<tspan style="font-size:80%;baseline-shift:sub;">LOAD</tspan></text>
<circle cx="260.0" cy="-120.0" r="2.0" stroke="#0000b2" stroke-width="4.0" fill="#0000b2" />
</g>
<g>
<path d="M 280,-140 L 294,-132 L 294,-148 Z" stroke="#000000" stroke-width="4.0" fill="none"/>
<text text-anchor="start" x="299.0" y="-133.25" fill="#808080" style="font-size:18px">ALU</text>
<circle cx="280.0" cy="-140.0" r="2.0" stroke="#0000b2" stroke-width="4.0" fill="#0000b2" />
</g>
<g>
<path d="M 360,-120 L 352,-106 L 368,-106 Z" stroke="#000000" stroke-width="4.0" fill="none"/>
<text text-anchor="end" x="360.0" y="-94.25" fill="#808080" style="font-size:18px" transform="rotate(-90,360.0,-101.0)" >operando<tspan style="font-size:80%;baseline-shift:sub;">EN</tspan></text>
<circle cx="360.0" cy="-120.0" r="2.0" stroke="#0000b2" stroke-width="4.0" fill="#0000b2" />
</g>
<g>
<path d="M 380,-160 L 394,-152 L 394,-168 Z" stroke="#000000" stroke-width="4.0" fill="none"/>
<text text-anchor="start" x="399.0" y="-153.25" fill="#808080" style="font-size:18px">B</text>
<circle cx="380.0" cy="-160.0" r="2.0" stroke="#0000b2" stroke-width="4.0" fill="#0000b2" />
</g>
<g>
<path d="M 480,-180 L 494,-172 L 494,-188 Z" stroke="#000000" stroke-width="4.0" fill="none"/>
<text text-anchor="start" x="499.0" y="-173.25" fill="#808080" style="font-size:18px">operações<tspan style="font-size:80%;baseline-shift:sub;">EN</tspan></text>
<circle cx="480.0" cy="-180.0" r="2.0" stroke="#0000b2" stroke-width="4.0" fill="#0000b2" />
</g>
<g>
<path d="M 460,-200 L 468,-214 L 452,-214 Z" stroke="#000000" stroke-width="4.0" fill="none"/>
<text text-anchor="start" x="460.0" y="-212.25" fill="#808080" style="font-size:18px" transform="rotate(-90,460.0,-219.0)" >IR<tspan style="font-size:80%;baseline-shift:sub;">LOAD</tspan></text>
<circle cx="460.0" cy="-200.0" r="2.0" stroke="#0000b2" stroke-width="4.0" fill="#0000b2" />
</g>
<g>
<path d="M 460,-160 L 452,-146 L 468,-146 Z" stroke="#000000" stroke-width="4.0" fill="none"/>
<text text-anchor="end" x="460.0" y="-134.25" fill="#808080" style="font-size:18px" transform="rotate(-90,460.0,-141.0)" >PC<tspan style="font-size:80%;baseline-shift:sub;">INT</tspan></text>
<circle cx="460.0" cy="-160.0" r="2.0" stroke="#0000b2" stroke-width="4.0" fill="#0000b2" />
</g>
<g>
<path d="M 0,-160 L -8,-146 L 8,-146 Z" stroke="#000000" stroke-width="4.0" fill="none"/>
<text text-anchor="end" x="0.0" y="-134.25" fill="#808080" style="font-size:18px" transform="rotate(-90,0.0,-141.0)" >CLR</text>
<circle cx="0.0" cy="-160.0" r="2.0" stroke="#0000b2" stroke-width="4.0" fill="#0000b2" />
</g>
<g>
<path d="M -91,-195 L -61,-195 L -61,-165 L -91,-165 Z" stroke="#000000" stroke-width="4.0" fill="none"/>
<circle cx="-76.0" cy="-180.0" r="9.0" stroke="#000000" stroke-width="4.0" fill="none" />
<circle cx="-60.0" cy="-180.0" r="2.0" stroke="#b20000" stroke-width="4.0" fill="#b20000" />
</g>
<g>
<path d="M -220,-360 L -234,-368 L -234,-352 Z" stroke="#000000" stroke-width="4.0" fill="none"/>
<text text-anchor="end" x="-239.0" y="-353.25" fill="#808080" style="font-size:18px">CLK<tspan style="font-size:80%;baseline-shift:sub;">PC</tspan></text>
<circle cx="-220.0" cy="-360.0" r="2.0" stroke="#0000b2" stroke-width="4.0" fill="#0000b2" />
</g>
<g>
<path d="M -150,-390 L -101,-390 L -101,-330 L -150,-330 C -160,-330 -180,-340 -179,-360 C -179,-380 -160,-390 -150,-390 Z" stroke="#000000" stroke-width="4.0" fill="none"/>
<circle cx="-100.0" cy="-340.0" r="2.0" stroke="#0000b2" stroke-width="4.0" fill="#0000b2" />
<circle cx="-100.0" cy="-380.0" r="2.0" stroke="#0000b2" stroke-width="4.0" fill="#0000b2" />
<circle cx="-180.0" cy="-360.0" r="2.0" stroke="#b20000" stroke-width="4.0" fill="#b20000" />
</g>
<g>
<path d="M -60,-340 L -46,-332 L -46,-348 Z" stroke="#000000" stroke-width="4.0" fill="none"/>
<text text-anchor="start" x="-41.0" y="-333.25" fill="#808080" style="font-size:18px">PC<tspan style="font-size:80%;baseline-shift:sub;">INT</tspan></text>
<circle cx="-60.0" cy="-340.0" r="2.0" stroke="#0000b2" stroke-width="4.0" fill="#0000b2" />
</g>
<g>
<path d="M 0,-400 L 8,-414 L -8,-414 Z" stroke="#000000" stroke-width="4.0" fill="none"/>
<text text-anchor="start" x="0.0" y="-412.25" fill="#808080" style="font-size:18px" transform="rotate(-90,0.0,-419.0)" >CLK</text>
<circle cx="0.0" cy="-400.0" r="2.0" stroke="#0000b2" stroke-width="4.0" fill="#0000b2" />
</g>
<g>
<path d="M 98,-358 L 68,-358 L 61,-365 L 61,-395 L 91,-395 L 98,-388 Z" stroke="#000000" stroke-width="4.0" fill="none"/>
<path d="M 68,-359 L 68,-388 L 97,-388" stroke="#000000" stroke-width="4.0" fill="none"/>
<circle cx="60.0" cy="-380.0" r="2.0" stroke="#b20000" stroke-width="4.0" fill="#b20000" />
</g>
<g>
<path d="M 1141,846 L 1199,846 L 1199,934 L 1141,934 Z" stroke="#ffffb4" stroke-width="0.0" fill="#ffffb4" fill-opacity="0.7843137254901961"/>
<path d="M 1141,846 L 1199,846 L 1199,934 L 1141,934 Z" stroke="#000000" stroke-width="4.0" fill="none"/>
<text text-anchor="start" x="1144.0" y="866.75" fill="#808080" style="font-size:18px">N</text>
<text text-anchor="start" x="1144.0" y="886.75" fill="#808080" style="font-size:18px">S</text>
<path d="M 1141,907 L 1148,900 L 1141,893" stroke="#000000" stroke-width="2.0" fill="none"/>
<text text-anchor="start" x="1151.0" y="906.75" fill="#808080" style="font-size:18px">CLK</text>
<text text-anchor="end" x="1196.0" y="866.75" fill="#808080" style="font-size:18px">MQ</text>
<text text-anchor="end" x="1196.0" y="886.75" fill="#808080" style="font-size:18px">neg</text>
<text text-anchor="end" x="1196.0" y="906.75" fill="#808080" style="font-size:18px">AC</text>
<text text-anchor="end" x="1196.0" y="926.75" fill="#808080" style="font-size:18px">Over</text>
<text text-anchor="middle" x="1170.0" y="951.5" fill="#808080" style="font-size:18px">alu8bits</text>
<circle cx="1140.0" cy="860.0" r="2.0" stroke="#0000b2" stroke-width="4.0" fill="#0000b2" />
<circle cx="1140.0" cy="880.0" r="2.0" stroke="#0000b2" stroke-width="4.0" fill="#0000b2" />
<circle cx="1140.0" cy="900.0" r="2.0" stroke="#0000b2" stroke-width="4.0" fill="#0000b2" />
<circle cx="1200.0" cy="860.0" r="2.0" stroke="#b20000" stroke-width="4.0" fill="#b20000" />
<circle cx="1200.0" cy="880.0" r="2.0" stroke="#b20000" stroke-width="4.0" fill="#b20000" />
<circle cx="1200.0" cy="900.0" r="2.0" stroke="#b20000" stroke-width="4.0" fill="#b20000" />
<circle cx="1200.0" cy="920.0" r="2.0" stroke="#b20000" stroke-width="4.0" fill="#b20000" />
</g>
</g>
</svg>